<?xml version="1.0" encoding="UTF-8" ?>
<!DOCTYPE svg PUBLIC "-//W3C//DTD SVG 1.1//EN" "http://www.w3.org/Graphics/SVG/1.1/DTD/svg11.dtd">
<svg width="500pt" height="500pt" viewBox="0 0 500 500" version="1.1" xmlns="http://www.w3.org/2000/svg">
<g id="#0a140614">
<path fill="#0a1406" opacity="0.08" d=" M 236.32 47.29 C 244.17 45.72 252.49 46.87 259.73 50.23 C 264.92 53.27 268.69 58.14 272.62 62.59 C 323.90 120.25 375.24 177.87 426.47 235.58 C 430.81 240.50 432.57 246.99 433.75 253.30 C 434.73 258.26 433.74 263.37 432.17 268.10 C 431.01 271.59 428.41 274.42 427.36 277.96 C 427.74 280.87 430.44 282.68 432.23 284.79 C 438.62 291.06 439.91 300.47 440.52 308.98 C 441.78 322.67 441.46 336.51 439.41 350.11 C 438.56 354.96 436.87 359.77 433.70 363.61 C 431.97 365.93 429.29 368.47 430.40 371.68 C 432.06 374.90 434.91 377.35 436.47 380.64 C 440.16 387.87 440.17 396.16 440.89 404.06 C 441.75 414.29 440.88 424.55 439.69 434.72 C 438.66 440.70 436.71 446.95 432.31 451.33 C 426.96 455.79 419.87 457.47 413.08 458.12 C 406.41 458.73 399.73 459.46 393.02 459.22 C 359.69 459.15 326.36 459.16 293.03 459.22 C 284.68 459.16 276.34 458.57 268.00 458.93 C 249.68 459.58 231.34 458.74 213.03 459.24 C 183.66 458.85 154.31 459.35 124.94 459.19 C 113.62 459.02 102.25 459.74 90.97 458.40 C 82.97 457.80 74.32 456.42 68.20 450.79 C 63.93 446.21 62.10 439.91 61.22 433.85 C 60.18 424.97 59.30 416.01 59.98 407.07 C 60.66 398.16 60.46 388.81 64.55 380.62 C 66.11 377.33 68.94 374.86 70.58 371.62 C 71.77 367.89 68.31 365.24 66.47 362.50 C 60.93 354.83 60.97 344.98 60.08 335.96 C 59.50 326.64 59.60 317.27 60.59 307.99 C 61.08 300.66 62.30 292.91 66.83 286.89 C 69.01 283.90 72.77 281.83 73.62 278.05 C 72.18 273.81 68.84 270.41 67.88 265.96 C 65.37 258.03 67.13 249.57 69.94 241.99 C 71.73 237.46 75.06 233.83 78.13 230.14 C 125.36 172.05 172.68 114.03 219.90 55.93 C 223.91 50.92 230.20 48.52 236.32 47.29 M 229.67 54.65 C 222.07 58.47 217.61 66.01 212.21 72.22 C 168.14 126.47 123.97 180.63 79.85 234.84 C 75.09 240.49 72.53 247.72 71.74 255.01 C 71.16 261.22 73.93 267.41 78.30 271.74 C 80.64 274.08 83.75 275.55 85.86 278.13 C 85.85 279.37 85.26 280.52 84.16 281.13 C 80.07 284.06 75.26 286.02 71.77 289.74 C 67.95 293.88 65.60 299.26 64.73 304.80 C 63.16 314.45 63.28 324.28 63.58 334.02 C 64.05 342.04 64.62 350.66 69.53 357.39 C 72.23 361.71 76.81 364.15 80.67 367.24 C 81.75 368.19 83.71 369.77 82.21 371.21 C 78.76 375.15 73.46 377.04 70.39 381.39 C 64.80 388.28 64.03 397.48 63.58 405.98 C 63.34 414.99 63.23 424.12 65.06 432.99 C 66.46 439.98 70.61 446.53 76.77 450.25 C 84.00 454.64 92.79 455.35 101.06 455.58 C 200.36 455.61 299.67 455.59 398.97 455.59 C 409.73 455.46 422.07 454.30 429.67 445.73 C 437.32 437.09 437.36 424.89 437.56 414.00 C 437.37 403.60 437.76 392.21 431.83 383.15 C 428.41 377.47 421.98 374.87 417.66 370.04 C 421.69 365.19 428.02 362.83 431.48 357.45 C 436.24 350.64 437.05 342.05 437.43 333.99 C 437.68 324.54 437.84 315.02 436.42 305.64 C 435.36 298.22 431.82 290.75 425.41 286.53 C 421.67 283.75 416.77 282.30 414.25 278.12 C 419.32 274.26 425.17 270.52 427.24 264.11 C 430.41 257.39 428.17 249.86 425.58 243.36 C 423.53 238.18 419.57 234.16 415.82 230.18 C 368.15 176.49 320.40 122.87 272.73 69.18 C 268.83 65.12 265.65 60.31 261.01 57.00 C 257.09 54.10 252.41 52.38 247.66 51.43 C 241.51 50.11 235.18 51.97 229.67 54.65 Z" />
</g>
<g id="#182f102f">
<path fill="#182f10" opacity="0.18" d=" M 229.67 54.65 C 235.18 51.97 241.51 50.11 247.66 51.43 C 252.41 52.38 257.09 54.10 261.01 57.00 C 265.65 60.31 268.83 65.12 272.73 69.18 C 320.40 122.87 368.15 176.49 415.82 230.18 C 419.57 234.16 423.53 238.18 425.58 243.36 C 428.17 249.86 430.41 257.39 427.24 264.11 C 425.17 270.52 419.32 274.26 414.25 278.12 C 416.77 282.30 421.67 283.75 425.41 286.53 C 431.82 290.75 435.36 298.22 436.42 305.64 C 437.84 315.02 437.68 324.54 437.43 333.99 C 437.05 342.05 436.24 350.64 431.48 357.45 C 428.02 362.83 421.69 365.19 417.66 370.04 C 421.98 374.87 428.41 377.47 431.83 383.15 C 437.76 392.21 437.37 403.60 437.56 414.00 C 437.36 424.89 437.32 437.09 429.67 445.73 C 422.07 454.30 409.73 455.46 398.97 455.59 C 299.67 455.59 200.36 455.61 101.06 455.58 C 92.79 455.35 84.00 454.64 76.77 450.25 C 70.61 446.53 66.46 439.98 65.06 432.99 C 63.23 424.12 63.34 414.99 63.58 405.98 C 64.03 397.48 64.80 388.28 70.39 381.39 C 73.46 377.04 78.76 375.15 82.21 371.21 C 83.71 369.77 81.75 368.19 80.67 367.24 C 76.81 364.15 72.23 361.71 69.53 357.39 C 64.62 350.66 64.05 342.04 63.58 334.02 C 63.28 324.28 63.16 314.45 64.73 304.80 C 65.60 299.26 67.95 293.88 71.77 289.74 C 75.26 286.02 80.07 284.06 84.16 281.13 C 85.26 280.52 85.85 279.37 85.86 278.13 C 83.75 275.55 80.64 274.08 78.30 271.74 C 73.93 267.41 71.16 261.22 71.74 255.01 C 72.53 247.72 75.09 240.49 79.85 234.84 C 123.97 180.63 168.14 126.47 212.21 72.22 C 217.61 66.01 222.07 58.47 229.67 54.65 M 227.82 60.80 C 221.70 65.71 217.01 72.08 212.12 78.15 C 172.32 127.01 132.53 175.88 92.74 224.76 C 89.32 228.99 85.74 233.10 82.60 237.55 C 77.70 244.58 75.04 253.58 76.81 262.08 C 79.39 266.78 83.76 270.63 88.80 272.50 C 89.45 273.84 90.49 274.94 92.04 275.15 C 97.59 276.57 103.23 277.93 108.98 277.99 C 134.01 277.80 159.05 277.90 184.08 277.91 C 250.39 278.02 316.70 277.76 383.00 278.00 C 390.11 278.35 397.28 278.13 404.20 276.32 C 406.99 275.46 410.82 275.58 412.16 272.42 C 416.27 270.43 420.19 267.70 423.11 264.16 C 426.12 258.71 424.04 252.20 422.21 246.71 C 419.16 237.65 411.76 231.29 405.71 224.26 C 361.51 174.46 317.21 124.74 272.95 74.99 C 266.89 68.43 261.27 60.76 252.72 57.32 C 244.65 53.52 234.69 55.33 227.82 60.80 M 90.52 284.44 C 79.41 286.11 69.45 295.42 67.92 306.73 C 65.93 318.79 65.97 331.22 67.90 343.28 C 69.12 352.22 75.61 360.01 83.78 363.54 C 87.70 367.64 94.07 366.87 98.64 369.98 C 94.02 372.96 87.72 372.42 83.79 376.51 C 76.23 379.83 69.91 386.77 68.31 395.01 C 65.98 406.54 65.96 418.51 68.11 430.07 C 70.16 442.43 82.07 451.76 94.48 451.61 C 97.04 453.15 100.07 453.16 102.96 453.19 C 196.96 453.14 290.95 453.18 384.94 453.15 C 394.42 453.22 404.02 453.39 413.35 451.44 C 423.14 449.31 431.31 441.23 433.39 431.40 C 435.91 419.58 435.78 407.23 433.56 395.37 C 432.07 387.35 426.62 380.23 419.27 376.69 C 413.84 373.86 407.76 372.69 402.27 370.00 C 407.74 367.17 414.02 366.39 419.42 363.39 C 427.57 359.31 433.11 350.97 434.43 342.03 C 435.67 333.75 435.79 325.33 435.38 316.98 C 434.93 311.21 434.54 305.25 432.00 299.94 C 428.86 292.51 422.13 286.83 414.40 284.62 C 406.15 282.30 397.59 280.84 389.00 281.32 C 294.34 281.34 199.69 281.32 105.04 281.33 C 100.12 281.69 94.91 281.94 90.52 284.44 Z" />
</g>
<g id="#2e571e57">
<path fill="#2e571e" opacity="0.34" d=" M 227.82 60.80 C 234.69 55.33 244.65 53.52 252.72 57.32 C 261.27 60.76 266.89 68.43 272.95 74.99 C 317.21 124.74 361.51 174.46 405.71 224.26 C 411.76 231.29 419.16 237.65 422.21 246.71 C 424.04 252.20 426.12 258.71 423.11 264.16 C 420.19 267.70 416.27 270.43 412.16 272.42 C 401.71 275.45 390.76 274.57 380.03 274.68 C 293.02 274.68 206.02 274.67 119.01 274.68 C 108.92 274.59 98.62 275.39 88.80 272.50 C 83.76 270.63 79.39 266.78 76.81 262.08 C 75.04 253.58 77.70 244.58 82.60 237.55 C 85.74 233.10 89.32 228.99 92.74 224.76 C 132.53 175.88 172.32 127.01 212.12 78.15 C 217.01 72.08 221.70 65.71 227.82 60.80 M 238.93 58.91 C 231.86 61.93 225.78 66.97 221.04 73.00 C 176.80 127.13 132.78 181.43 88.59 235.59 C 84.56 240.45 82.41 246.46 80.21 252.29 C 79.60 253.81 79.57 255.46 79.61 257.09 C 79.22 257.77 78.83 258.46 78.44 259.15 C 79.43 262.02 81.37 264.98 84.68 265.28 C 90.94 270.17 99.31 271.31 107.04 271.51 C 202.70 271.51 298.36 271.52 394.02 271.50 C 402.86 271.50 411.17 268.09 419.26 264.92 C 422.40 263.76 423.19 259.73 422.17 256.87 C 420.74 252.79 418.67 248.97 417.00 244.99 C 413.92 237.60 407.71 232.32 402.70 226.31 C 357.43 175.52 312.35 124.57 267.04 73.82 C 262.52 68.67 257.56 63.70 251.32 60.67 C 247.62 58.56 243.06 57.36 238.93 58.91 Z" />
<path fill="#2e571e" opacity="0.34" d=" M 83.79 376.51 C 88.19 375.23 92.75 374.52 97.33 374.49 C 197.22 374.50 297.12 374.52 397.01 374.49 C 403.06 374.73 409.04 376.04 414.78 377.95 C 422.06 380.66 429.03 386.05 431.17 393.84 C 433.96 403.88 433.80 414.53 432.73 424.81 C 431.86 433.26 427.91 441.87 420.37 446.32 C 410.93 451.85 399.55 451.72 388.95 451.56 C 290.79 451.57 192.64 451.49 94.48 451.61 C 82.07 451.76 70.16 442.43 68.11 430.07 C 65.96 418.51 65.98 406.54 68.31 395.01 C 69.91 386.77 76.23 379.83 83.79 376.51 M 94.45 377.75 C 88.27 378.71 81.73 380.59 77.10 384.99 C 71.01 392.89 69.99 403.32 70.34 412.97 C 70.01 422.79 70.99 433.57 77.50 441.43 C 84.24 447.05 93.46 448.84 102.05 448.62 C 115.70 449.30 129.36 448.18 143.01 448.84 C 162.00 448.80 181.01 448.27 199.99 449.08 C 212.65 448.29 225.34 448.85 238.02 448.66 C 246.37 448.33 254.70 450.05 263.04 448.95 C 271.68 447.91 280.35 449.78 288.99 448.72 C 303.00 448.57 317.02 448.77 331.03 448.64 C 336.36 448.54 341.69 449.58 347.02 448.91 C 351.02 448.39 355.01 449.13 359.01 449.14 C 372.96 448.18 386.96 448.94 400.93 448.62 C 408.88 448.54 417.28 446.60 423.51 441.45 C 429.04 434.67 430.82 425.51 430.65 416.94 C 430.76 407.20 431.21 396.71 425.84 388.10 C 421.68 381.26 413.27 379.25 405.97 377.78 C 398.69 377.15 391.34 376.85 384.04 377.33 C 377.35 377.59 370.69 375.96 364.02 377.05 C 357.01 378.11 350.01 376.06 343.00 376.90 C 338.99 377.31 334.98 376.73 330.97 376.74 C 322.66 377.15 314.34 376.90 306.03 376.71 C 293.03 377.45 279.98 377.00 266.98 376.72 C 261.68 377.50 256.37 376.93 251.06 376.67 C 240.07 377.84 229.01 376.41 217.99 377.15 C 212.64 376.58 207.29 376.67 201.95 377.25 C 195.95 376.99 189.96 376.26 183.96 377.14 C 174.65 376.71 165.31 376.43 155.98 376.77 C 149.31 377.35 142.61 376.54 135.95 377.36 C 129.98 377.08 124.02 376.71 118.04 377.03 C 110.17 376.10 102.30 377.16 94.45 377.75 Z" />
</g>
<g id="#4d8a338a">
<path fill="#4d8a33" opacity="0.54" d=" M 238.93 58.91 C 243.06 57.36 247.62 58.56 251.32 60.67 C 257.56 63.70 262.52 68.67 267.04 73.82 C 312.35 124.57 357.43 175.52 402.70 226.31 C 407.71 232.32 413.92 237.60 417.00 244.99 C 418.67 248.97 420.74 252.79 422.17 256.87 C 423.19 259.73 422.40 263.76 419.26 264.92 C 411.17 268.09 402.86 271.50 394.02 271.50 C 298.36 271.52 202.70 271.51 107.04 271.51 C 99.31 271.31 90.94 270.17 84.68 265.28 C 92.87 265.14 100.79 267.71 108.98 267.54 C 202.99 267.53 297.01 267.53 391.03 267.53 C 398.41 267.45 405.69 265.99 413.01 265.13 C 416.05 264.63 420.67 263.91 420.87 260.00 C 420.97 254.80 416.64 251.04 414.25 246.80 C 409.01 237.96 401.69 230.69 394.97 223.00 C 351.35 173.98 307.77 124.92 264.12 75.94 C 258.96 70.45 253.45 65.17 247.16 61.00 C 244.26 58.81 240.40 59.62 237.78 61.81 C 231.89 66.53 226.55 71.95 221.73 77.76 C 179.08 130.11 136.48 182.52 93.81 234.86 C 88.27 241.73 84.41 249.72 79.61 257.09 C 79.57 255.46 79.60 253.81 80.21 252.29 C 82.41 246.46 84.56 240.45 88.59 235.59 C 132.78 181.43 176.80 127.13 221.04 73.00 C 225.78 66.97 231.86 61.93 238.93 58.91 Z" />
</g>
<g id="#7ac552c5">
<path fill="#7ac552" opacity="0.77" d=" M 237.78 61.81 C 240.40 59.62 244.26 58.81 247.16 61.00 C 253.45 65.17 258.96 70.45 264.12 75.94 C 307.77 124.92 351.35 173.98 394.97 223.00 C 401.69 230.69 409.01 237.96 414.25 246.80 C 416.64 251.04 420.97 254.80 420.87 260.00 C 420.67 263.91 416.05 264.63 413.01 265.13 C 405.69 265.99 398.41 267.45 391.03 267.53 C 297.01 267.53 202.99 267.53 108.98 267.54 C 100.79 267.71 92.87 265.14 84.68 265.28 C 81.37 264.98 79.43 262.02 78.44 259.15 C 78.83 258.46 79.22 257.77 79.61 257.09 C 84.41 249.72 88.27 241.73 93.81 234.86 C 136.48 182.52 179.08 130.11 221.73 77.76 C 226.55 71.95 231.89 66.53 237.78 61.81 M 236.55 65.47 C 231.76 70.69 227.10 76.06 222.62 81.55 C 180.28 133.59 137.89 185.58 95.58 237.64 C 91.97 242.08 88.78 246.82 85.42 251.45 C 83.63 253.98 81.49 256.59 81.63 259.89 C 81.40 260.21 80.94 260.83 80.71 261.14 C 81.21 261.14 82.20 261.14 82.70 261.13 C 85.86 263.83 90.22 263.43 94.10 263.55 C 98.74 263.42 103.33 264.32 107.96 264.43 C 202.98 264.43 298.00 264.44 393.02 264.42 C 396.36 264.44 399.77 264.42 402.98 263.38 C 408.94 263.93 415.27 264.00 420.47 260.58 C 419.34 258.37 418.26 256.13 416.88 254.08 C 406.30 239.52 393.78 226.55 381.97 213.02 C 349.80 176.88 317.65 140.73 285.51 104.57 C 274.19 92.19 263.56 79.16 251.59 67.39 C 249.51 65.38 247.56 63.12 244.96 61.78 C 241.59 60.48 238.73 63.31 236.55 65.47 Z" />
</g>
<g id="#d7f89af8">
<path fill="#d7f89a" opacity="0.97" d=" M 236.55 65.47 C 238.73 63.31 241.59 60.48 244.96 61.78 C 247.56 63.12 249.51 65.38 251.59 67.39 C 263.56 79.16 274.19 92.19 285.51 104.57 C 317.65 140.73 349.80 176.88 381.97 213.02 C 393.78 226.55 406.30 239.52 416.88 254.08 C 418.26 256.13 419.34 258.37 420.47 260.58 C 415.27 264.00 408.94 263.93 402.98 263.38 C 406.63 262.26 410.37 261.32 414.20 261.17 C 415.01 261.16 416.64 261.14 417.46 261.12 C 418.01 260.61 418.57 260.10 419.14 259.59 C 417.90 258.21 416.69 256.83 415.51 255.41 C 398.52 234.59 380.09 214.99 362.39 194.77 C 335.37 164.41 308.40 134.01 281.35 103.69 C 268.64 89.70 256.64 75.02 243.03 61.88 C 238.57 66.21 234.61 71.00 230.64 75.77 C 186.98 129.13 143.57 182.69 100.00 236.13 C 94.43 243.07 88.88 250.03 83.64 257.23 C 82.97 258.12 82.30 259.00 81.63 259.89 C 81.49 256.59 83.63 253.98 85.42 251.45 C 88.78 246.82 91.97 242.08 95.58 237.64 C 137.89 185.58 180.28 133.59 222.62 81.55 C 227.10 76.06 231.76 70.69 236.55 65.47 Z" />
</g>
<g id="#efffcdff">
<path fill="#efffcd" opacity="1.00" d=" M 230.64 75.77 C 234.61 71.00 238.57 66.21 243.03 61.88 C 256.64 75.02 268.64 89.70 281.35 103.69 C 308.40 134.01 335.37 164.41 362.39 194.77 C 380.09 214.99 398.52 234.59 415.51 255.41 C 415.46 256.68 415.41 257.95 415.36 259.23 C 406.90 259.86 398.42 259.36 389.95 259.54 C 292.96 259.58 195.97 259.53 98.99 259.55 C 93.85 259.36 87.96 260.84 83.64 257.23 C 88.88 250.03 94.43 243.07 100.00 236.13 C 143.57 182.69 186.98 129.13 230.64 75.77 M 241.54 117.38 C 236.45 123.06 232.17 129.43 227.32 135.32 C 204.39 164.76 181.52 194.25 158.54 223.65 C 157.50 225.11 156.81 226.76 156.06 228.38 C 214.35 228.52 272.65 228.55 330.94 228.37 C 329.32 224.19 326.31 220.86 323.50 217.47 C 297.65 184.63 271.86 151.76 245.97 118.97 C 244.89 117.76 243.03 115.23 241.54 117.38 Z" />
</g>
<g id="#e6fba7fb">
<path fill="#e6fba7" opacity="1.00" d=" M 241.54 117.38 C 243.03 115.23 244.89 117.76 245.97 118.97 C 271.86 151.76 297.65 184.63 323.50 217.47 C 326.31 220.86 329.32 224.19 330.94 228.37 C 272.65 228.55 214.35 228.52 156.06 228.38 C 156.81 226.76 157.50 225.11 158.54 223.65 C 181.52 194.25 204.39 164.76 227.32 135.32 C 232.17 129.43 236.45 123.06 241.54 117.38 M 228.79 137.64 L 228.63 137.06 C 210.81 160.42 192.52 183.42 174.62 206.71 C 173.00 208.89 171.31 211.05 170.10 213.48 C 166.70 216.93 163.04 220.66 161.98 225.56 C 168.57 224.81 175.24 227.27 181.68 225.57 C 190.06 226.86 198.53 226.27 206.95 225.92 C 221.31 226.55 235.68 226.26 250.05 226.35 C 258.04 225.92 266.06 225.45 274.04 226.29 C 280.39 226.89 286.74 225.36 293.08 226.17 C 297.03 226.62 301.04 226.39 304.94 225.59 C 308.58 226.92 312.33 225.62 316.04 225.59 C 319.15 225.47 322.43 225.90 325.32 224.47 C 320.13 217.73 315.59 210.51 310.35 203.80 C 293.98 182.77 277.39 161.91 260.95 140.92 C 255.31 133.90 249.56 126.92 242.99 120.73 C 237.89 126.01 232.27 131.08 228.79 137.64 Z" />
<path fill="#e6fba7" opacity="1.00" d=" M 82.70 261.13 C 149.13 261.65 215.58 261.26 282.02 261.38 C 326.08 261.29 370.14 261.60 414.20 261.17 C 410.37 261.32 406.63 262.26 402.98 263.38 C 399.77 264.42 396.36 264.44 393.02 264.42 C 298.00 264.44 202.98 264.43 107.96 264.43 C 103.33 264.32 98.74 263.42 94.10 263.55 C 90.22 263.43 85.86 263.83 82.70 261.13 Z" />
<path fill="#e6fba7" opacity="1.00" d=" M 82.86 296.10 C 87.31 294.89 91.97 295.28 96.53 295.43 C 103.65 296.17 110.82 295.74 117.97 295.83 C 210.30 295.82 302.63 295.83 394.95 295.82 C 403.09 295.93 411.39 295.41 419.30 297.74 C 389.88 297.21 360.45 297.56 331.03 297.48 C 275.00 297.48 218.97 297.46 162.94 297.47 C 136.17 297.56 109.40 297.25 82.63 297.71 C 81.99 298.35 81.35 298.99 80.71 299.63 C 80.35 316.92 80.45 334.22 80.68 351.52 C 80.19 349.40 79.61 347.28 79.41 345.11 C 78.74 329.58 78.97 314.03 79.73 298.51 C 80.10 298.23 80.84 297.66 81.21 297.38 C 81.62 297.06 82.45 296.42 82.86 296.10 Z" />
</g>
<g id="#9ceb6beb">
<path fill="#9ceb6b" opacity="0.92" d=" M 228.79 137.64 C 232.27 131.08 237.89 126.01 242.99 120.73 C 249.56 126.92 255.31 133.90 260.95 140.92 C 277.39 161.91 293.98 182.77 310.35 203.80 C 315.59 210.51 320.13 217.73 325.32 224.47 C 322.43 225.90 319.15 225.47 316.04 225.59 C 312.33 225.62 308.58 226.92 304.94 225.59 C 308.51 224.49 312.67 224.01 315.40 221.24 C 318.23 217.26 314.64 212.82 312.30 209.60 C 294.43 186.54 276.22 163.74 258.24 140.76 C 255.28 137.08 252.33 133.33 248.66 130.32 C 245.59 127.66 240.36 127.51 237.42 130.43 C 234.69 133.01 232.02 135.68 228.79 137.64 Z" />
</g>
<g id="#6bb648b6">
<path fill="#6bb648" opacity="0.71" d=" M 237.42 130.43 C 240.36 127.51 245.59 127.66 248.66 130.32 C 252.33 133.33 255.28 137.08 258.24 140.76 C 276.22 163.74 294.43 186.54 312.30 209.60 C 313.03 213.03 314.64 217.13 312.33 220.29 C 309.58 223.51 304.95 223.55 301.06 223.76 C 280.71 224.50 260.35 224.02 239.99 224.15 C 221.64 224.04 203.28 224.43 184.94 223.72 C 180.93 223.56 175.94 223.03 173.85 219.06 C 172.05 214.25 175.07 209.42 177.88 205.69 C 194.99 183.61 212.27 161.66 229.31 139.51 C 229.18 139.04 228.92 138.11 228.79 137.64 C 232.02 135.68 234.69 133.01 237.42 130.43 M 239.42 133.57 C 233.67 136.53 229.84 142.02 225.92 146.97 C 211.48 165.53 197.08 184.11 182.57 202.61 C 179.39 206.70 176.04 211.78 177.80 217.19 C 180.54 221.03 185.60 221.75 189.99 221.63 C 225.99 221.66 262.00 221.71 298.00 221.60 C 302.21 221.67 307.50 220.70 309.30 216.34 C 310.49 211.44 307.55 206.83 304.62 203.17 C 291.04 186.10 277.66 168.88 264.12 151.78 C 259.63 146.04 255.36 139.98 249.63 135.37 C 246.82 133.10 242.81 131.69 239.42 133.57 Z" />
</g>
<g id="#4f8c348c">
<path fill="#4f8c34" opacity="0.55" d=" M 239.42 133.57 C 242.81 131.69 246.82 133.10 249.63 135.37 C 255.36 139.98 259.63 146.04 264.12 151.78 C 277.66 168.88 291.04 186.10 304.62 203.17 C 307.55 206.83 310.49 211.44 309.30 216.34 C 307.50 220.70 302.21 221.67 298.00 221.60 C 262.00 221.71 225.99 221.66 189.99 221.63 C 185.60 221.75 180.54 221.03 177.80 217.19 C 176.04 211.78 179.39 206.70 182.57 202.61 C 197.08 184.11 211.48 165.53 225.92 146.97 C 229.84 142.02 233.67 136.53 239.42 133.57 M 240.24 137.32 C 235.42 139.53 232.20 143.96 228.98 147.99 C 214.60 166.62 200.04 185.12 185.67 203.76 C 183.16 206.74 181.09 211.01 183.04 214.81 C 185.38 217.79 189.40 218.65 193.01 218.59 C 226.32 218.62 259.63 218.60 292.94 218.60 C 296.19 218.61 299.70 218.35 302.38 216.27 C 304.64 214.72 305.15 211.53 304.16 209.09 C 302.36 204.50 298.80 200.94 295.86 197.08 C 283.01 180.65 270.03 164.31 257.17 147.87 C 254.36 144.39 251.62 140.67 247.75 138.29 C 245.53 136.89 242.70 135.85 240.24 137.32 Z" />
<path fill="#4f8c34" opacity="0.55" d=" M 79.71 293.10 C 86.40 291.33 93.04 288.96 100.01 288.61 C 105.01 288.31 110.02 288.50 115.02 288.48 C 206.68 288.47 298.34 288.49 390.00 288.46 C 399.73 288.28 410.02 288.41 418.71 293.38 C 411.45 292.78 404.29 291.08 396.97 291.33 C 387.65 291.58 378.33 290.68 369.01 291.31 C 352.36 291.30 335.69 291.54 319.04 291.07 C 310.71 291.63 302.37 290.38 294.04 291.28 C 281.68 291.34 269.30 291.61 256.95 290.93 C 239.32 291.60 221.66 291.43 204.02 291.11 C 187.02 291.45 169.99 291.59 153.00 290.92 C 147.02 291.42 141.04 290.89 135.05 290.93 C 119.39 292.21 103.55 289.93 88.00 292.78 C 83.85 293.41 78.46 294.38 77.17 299.12 C 74.06 309.77 74.18 321.00 74.38 332.00 C 74.56 337.35 75.26 342.68 76.33 347.92 C 76.60 349.62 77.61 351.03 78.70 352.31 C 79.96 353.40 81.29 354.42 82.68 355.36 C 89.51 358.84 97.46 359.19 104.98 359.54 C 203.33 359.44 301.68 359.60 400.03 359.46 C 407.18 358.80 415.22 358.70 421.18 354.21 C 423.67 350.02 423.76 345.08 424.19 340.37 C 424.41 340.44 424.85 340.58 425.07 340.65 C 424.98 341.95 424.79 344.53 424.70 345.82 C 428.74 330.59 426.64 314.67 424.62 299.29 C 427.47 304.40 428.89 310.18 429.30 315.99 C 430.07 327.82 429.80 340.10 425.17 351.20 C 424.20 353.64 422.40 355.71 420.06 356.90 C 413.58 360.24 406.24 361.64 398.98 361.58 C 307.68 361.58 216.37 361.57 125.06 361.58 C 117.14 361.64 109.21 361.32 101.30 361.90 C 93.09 361.94 84.55 360.02 77.75 355.31 C 73.40 349.47 71.96 341.98 70.91 334.92 C 69.94 324.48 70.18 313.73 73.36 303.66 C 74.59 299.72 76.38 295.71 79.71 293.10 Z" />
</g>
<g id="#88d85cd8">
<path fill="#88d85c" opacity="0.85" d=" M 228.63 137.06 L 228.79 137.64 C 228.92 138.11 229.18 139.04 229.31 139.51 C 212.27 161.66 194.99 183.61 177.88 205.69 C 175.07 209.42 172.05 214.25 173.85 219.06 C 175.94 223.03 180.93 223.56 184.94 223.72 C 203.28 224.43 221.64 224.04 239.99 224.15 C 260.35 224.02 280.71 224.50 301.06 223.76 C 304.95 223.55 309.58 223.51 312.33 220.29 C 314.64 217.13 313.03 213.03 312.30 209.60 C 314.64 212.82 318.23 217.26 315.40 221.24 C 312.67 224.01 308.51 224.49 304.94 225.59 C 301.04 226.39 297.03 226.62 293.08 226.17 C 286.74 225.36 280.39 226.89 274.04 226.29 C 266.06 225.45 258.04 225.92 250.05 226.35 C 235.68 226.26 221.31 226.55 206.95 225.92 C 198.53 226.27 190.06 226.86 181.68 225.57 C 177.65 224.78 173.16 224.76 169.71 222.27 C 169.12 219.36 169.57 216.36 170.10 213.48 C 171.31 211.05 173.00 208.89 174.62 206.71 C 192.52 183.42 210.81 160.42 228.63 137.06 Z" />
</g>
<g id="#335f215f">
<path fill="#335f21" opacity="0.37" d=" M 240.24 137.32 C 242.70 135.85 245.53 136.89 247.75 138.29 C 251.62 140.67 254.36 144.39 257.17 147.87 C 270.03 164.31 283.01 180.65 295.86 197.08 C 298.80 200.94 302.36 204.50 304.16 209.09 C 305.15 211.53 304.64 214.72 302.38 216.27 C 299.70 218.35 296.19 218.61 292.94 218.60 C 259.63 218.60 226.32 218.62 193.01 218.59 C 189.40 218.65 185.38 217.79 183.04 214.81 C 181.09 211.01 183.16 206.74 185.67 203.76 C 200.04 185.12 214.60 166.62 228.98 147.99 C 232.20 143.96 235.42 139.53 240.24 137.32 M 239.68 141.75 C 236.31 143.54 234.08 146.81 231.66 149.67 C 217.58 167.90 203.36 186.03 189.25 204.24 C 187.14 206.50 187.39 209.66 187.36 212.52 C 192.90 216.11 199.71 215.51 206.00 215.50 C 233.33 215.48 260.66 215.50 287.98 215.49 C 292.08 215.57 296.15 214.64 299.65 212.47 C 300.38 207.42 297.07 203.46 294.05 199.87 C 280.67 182.93 267.43 165.87 253.98 148.98 C 252.21 146.80 250.41 144.60 248.18 142.86 C 245.86 140.86 242.46 141.05 239.68 141.75 Z" />
</g>
<g id="#1d371237">
<path fill="#1d3712" opacity="0.22" d=" M 239.68 141.75 C 242.46 141.05 245.86 140.86 248.18 142.86 C 250.41 144.60 252.21 146.80 253.98 148.98 C 267.43 165.87 280.67 182.93 294.05 199.87 C 297.07 203.46 300.38 207.42 299.65 212.47 C 296.15 214.64 292.08 215.57 287.98 215.49 C 260.66 215.50 233.33 215.48 206.00 215.50 C 199.71 215.51 192.90 216.11 187.36 212.52 C 187.39 209.66 187.14 206.50 189.25 204.24 C 203.36 186.03 217.58 167.90 231.66 149.67 C 234.08 146.81 236.31 143.54 239.68 141.75 M 239.03 147.07 C 234.17 151.18 230.73 156.62 226.78 161.54 C 215.92 175.37 205.20 189.32 194.35 203.16 C 192.77 204.92 192.05 207.32 192.60 209.66 C 194.46 211.72 197.49 211.43 200.01 211.59 C 228.34 211.64 256.66 211.60 284.99 211.61 C 288.38 211.76 291.62 210.67 294.74 209.45 C 294.35 206.81 293.50 204.22 291.69 202.20 C 280.38 188.18 269.41 173.90 258.20 159.80 C 254.67 155.38 251.50 150.55 247.07 146.94 C 244.82 144.97 241.20 144.97 239.03 147.07 Z" />
</g>
<g id="#09130613">
<path fill="#091306" opacity="0.07" d=" M 239.03 147.07 C 241.20 144.97 244.82 144.97 247.07 146.94 C 251.50 150.55 254.67 155.38 258.20 159.80 C 269.41 173.90 280.38 188.18 291.69 202.20 C 293.50 204.22 294.35 206.81 294.74 209.45 C 291.62 210.67 288.38 211.76 284.99 211.61 C 256.66 211.60 228.34 211.64 200.01 211.59 C 197.49 211.43 194.46 211.72 192.60 209.66 C 192.05 207.32 192.77 204.92 194.35 203.16 C 205.20 189.32 215.92 175.37 226.78 161.54 C 230.73 156.62 234.17 151.18 239.03 147.07 M 237.62 159.69 C 227.40 172.80 217.31 186.01 206.96 199.01 C 205.46 200.96 204.26 203.10 203.06 205.23 C 208.62 208.17 215.02 207.33 221.06 207.37 C 238.06 207.36 255.06 207.32 272.06 207.42 C 276.08 207.43 280.48 207.25 283.58 204.32 C 272.94 190.38 262.02 176.66 251.15 162.89 C 249.01 160.28 246.92 157.46 243.97 155.72 C 241.19 155.17 239.36 157.99 237.62 159.69 Z" />
</g>
<g id="#a5f172f1">
<path fill="#a5f172" opacity="0.95" d=" M 161.98 225.56 C 163.04 220.66 166.70 216.93 170.10 213.48 C 169.57 216.36 169.12 219.36 169.71 222.27 C 173.16 224.76 177.65 224.78 181.68 225.57 C 175.24 227.27 168.57 224.81 161.98 225.56 Z" />
</g>
<g id="#f8ffe5ff">
<path fill="#f8ffe5" opacity="1.00" d=" M 415.51 255.41 C 416.69 256.83 417.90 258.21 419.14 259.59 C 418.57 260.10 418.01 260.61 417.46 261.12 C 416.64 261.14 415.01 261.16 414.20 261.17 C 370.14 261.60 326.08 261.29 282.02 261.38 C 215.58 261.26 149.13 261.65 82.70 261.13 C 82.20 261.14 81.21 261.14 80.71 261.14 C 80.94 260.83 81.40 260.21 81.63 259.89 C 82.30 259.00 82.97 258.12 83.64 257.23 C 87.96 260.84 93.85 259.36 98.99 259.55 C 195.97 259.53 292.96 259.58 389.95 259.54 C 398.42 259.36 406.90 259.86 415.36 259.23 C 415.41 257.95 415.46 256.68 415.51 255.41 Z" />
</g>
<g id="#1f3c143c">
<path fill="#1f3c14" opacity="0.24" d=" M 88.80 272.50 C 98.62 275.39 108.92 274.59 119.01 274.68 C 206.02 274.67 293.02 274.68 380.03 274.68 C 390.76 274.57 401.71 275.45 412.16 272.42 C 410.82 275.58 406.99 275.46 404.20 276.32 C 397.28 278.13 390.11 278.35 383.00 278.00 C 316.70 277.76 250.39 278.02 184.08 277.91 C 159.05 277.90 134.01 277.80 108.98 277.99 C 103.23 277.93 97.59 276.57 92.04 275.15 C 90.49 274.94 89.45 273.84 88.80 272.50 Z" />
</g>
<g id="#22411641">
<path fill="#224116" opacity="0.25" d=" M 90.52 284.44 C 94.91 281.94 100.12 281.69 105.04 281.33 C 199.69 281.32 294.34 281.34 389.00 281.32 C 397.59 280.84 406.15 282.30 414.40 284.62 C 422.13 286.83 428.86 292.51 432.00 299.94 C 434.54 305.25 434.93 311.21 435.38 316.98 C 435.79 325.33 435.67 333.75 434.43 342.03 C 433.11 350.97 427.57 359.31 419.42 363.39 C 414.02 366.39 407.74 367.17 402.27 370.00 C 407.76 372.69 413.84 373.86 419.27 376.69 C 426.62 380.23 432.07 387.35 433.56 395.37 C 435.78 407.23 435.91 419.58 433.39 431.40 C 431.31 441.23 423.14 449.31 413.35 451.44 C 404.02 453.39 394.42 453.22 384.94 453.15 C 290.95 453.18 196.96 453.14 102.96 453.19 C 100.07 453.16 97.04 453.15 94.48 451.61 C 192.64 451.49 290.79 451.57 388.95 451.56 C 399.55 451.72 410.93 451.85 420.37 446.32 C 427.91 441.87 431.86 433.26 432.73 424.81 C 433.80 414.53 433.96 403.88 431.17 393.84 C 429.03 386.05 422.06 380.66 414.78 377.95 C 409.04 376.04 403.06 374.73 397.01 374.49 C 297.12 374.52 197.22 374.50 97.33 374.49 C 92.75 374.52 88.19 375.23 83.79 376.51 C 87.72 372.42 94.02 372.96 98.64 369.98 C 94.07 366.87 87.70 367.64 83.78 363.54 C 87.78 364.60 91.88 365.24 95.97 365.89 C 94.29 365.44 92.61 364.99 90.93 364.56 C 92.43 364.48 93.93 364.41 95.43 364.34 C 136.96 364.85 178.51 364.42 220.06 364.56 C 279.73 364.57 339.40 364.55 399.07 364.57 C 407.69 364.29 417.06 362.64 423.67 356.67 C 430.85 349.90 432.21 339.38 432.51 330.02 C 432.61 318.71 433.12 306.26 426.46 296.49 C 421.54 289.30 412.64 287.03 404.53 285.69 C 401.73 285.15 398.90 284.63 396.04 284.56 C 309.03 284.65 222.02 284.57 135.00 284.60 C 120.18 284.52 105.35 284.78 90.52 284.44 Z" />
</g>
<g id="#2e551e55">
<path fill="#2e551e" opacity="0.33" d=" M 67.92 306.73 C 69.45 295.42 79.41 286.11 90.52 284.44 C 105.35 284.78 120.18 284.52 135.00 284.60 C 222.02 284.57 309.03 284.65 396.04 284.56 C 398.90 284.63 401.73 285.15 404.53 285.69 C 398.69 286.35 392.82 286.43 386.95 286.26 C 292.61 286.26 198.27 286.25 103.94 286.26 C 95.56 286.57 86.36 287.46 79.71 293.10 C 76.38 295.71 74.59 299.72 73.36 303.66 C 70.18 313.73 69.94 324.48 70.91 334.92 C 71.96 341.98 73.40 349.47 77.75 355.31 C 84.55 360.02 93.09 361.94 101.30 361.90 C 99.32 362.66 97.40 363.55 95.43 364.34 C 93.93 364.41 92.43 364.48 90.93 364.56 C 92.61 364.99 94.29 365.44 95.97 365.89 C 91.88 365.24 87.78 364.60 83.78 363.54 C 75.61 360.01 69.12 352.22 67.90 343.28 C 65.97 331.22 65.93 318.79 67.92 306.73 Z" />
</g>
<g id="#3b6c266c">
<path fill="#3b6c26" opacity="0.42" d=" M 79.71 293.10 C 86.36 287.46 95.56 286.57 103.94 286.26 C 198.27 286.25 292.61 286.26 386.95 286.26 C 392.82 286.43 398.69 286.35 404.53 285.69 C 412.64 287.03 421.54 289.30 426.46 296.49 C 433.12 306.26 432.61 318.71 432.51 330.02 C 432.21 339.38 430.85 349.90 423.67 356.67 C 417.06 362.64 407.69 364.29 399.07 364.57 C 339.40 364.55 279.73 364.57 220.06 364.56 C 178.51 364.42 136.96 364.85 95.43 364.34 C 97.40 363.55 99.32 362.66 101.30 361.90 C 109.21 361.32 117.14 361.64 125.06 361.58 C 216.37 361.57 307.68 361.58 398.98 361.58 C 406.24 361.64 413.58 360.24 420.06 356.90 C 422.40 355.71 424.20 353.64 425.17 351.20 C 429.80 340.10 430.07 327.82 429.30 315.99 C 428.89 310.18 427.47 304.40 424.62 299.29 C 423.40 296.70 421.29 294.60 418.71 293.38 C 410.02 288.41 399.73 288.28 390.00 288.46 C 298.34 288.49 206.68 288.47 115.02 288.48 C 110.02 288.50 105.01 288.31 100.01 288.61 C 93.04 288.96 86.40 291.33 79.71 293.10 Z" />
</g>
<g id="#6fb94ab9">
<path fill="#6fb94a" opacity="0.73" d=" M 88.00 292.78 C 103.55 289.93 119.39 292.21 135.05 290.93 C 141.04 290.89 147.02 291.42 153.00 290.92 C 169.99 291.59 187.02 291.45 204.02 291.11 C 221.66 291.43 239.32 291.60 256.95 290.93 C 269.30 291.61 281.68 291.34 294.04 291.28 C 302.37 290.38 310.71 291.63 319.04 291.07 C 335.69 291.54 352.36 291.30 369.01 291.31 C 378.33 290.68 387.65 291.58 396.97 291.33 C 404.29 291.08 411.45 292.78 418.71 293.38 C 421.29 294.60 423.40 296.70 424.62 299.29 C 426.64 314.67 428.74 330.59 424.70 345.82 C 424.79 344.53 424.98 341.95 425.07 340.65 C 424.85 340.58 424.41 340.44 424.19 340.37 C 422.69 327.64 424.62 314.71 422.93 301.99 C 422.68 298.27 419.63 295.35 415.97 295.03 C 409.35 294.36 402.69 294.07 396.05 293.67 C 319.38 293.69 242.71 293.68 166.04 293.68 C 141.90 293.85 117.74 293.33 93.60 293.97 C 94.33 294.34 95.79 295.06 96.53 295.43 C 91.97 295.28 87.31 294.89 82.86 296.10 C 82.10 296.28 80.57 296.65 79.81 296.84 C 77.38 302.23 77.31 308.18 77.40 313.98 C 77.54 326.75 76.61 339.64 78.70 352.31 C 77.61 351.03 76.60 349.62 76.33 347.92 C 75.26 342.68 74.56 337.35 74.38 332.00 C 74.18 321.00 74.06 309.77 77.17 299.12 C 78.46 294.38 83.85 293.41 88.00 292.78 Z" />
</g>
<g id="#c7f38bf3">
<path fill="#c7f38b" opacity="0.95" d=" M 93.60 293.97 C 117.74 293.33 141.90 293.85 166.04 293.68 C 242.71 293.68 319.38 293.69 396.05 293.67 C 402.69 294.07 409.35 294.36 415.97 295.03 C 419.63 295.35 422.68 298.27 422.93 301.99 C 424.62 314.71 422.69 327.64 424.19 340.37 C 423.76 345.08 423.67 350.02 421.18 354.21 C 404.62 357.24 387.74 356.29 371.00 356.42 C 282.67 356.44 194.34 356.40 106.00 356.44 C 98.20 356.77 90.48 355.14 82.68 355.36 C 81.29 354.42 79.96 353.40 78.70 352.31 C 76.61 339.64 77.54 326.75 77.40 313.98 C 77.31 308.18 77.38 302.23 79.81 296.84 C 80.57 296.65 82.10 296.28 82.86 296.10 C 82.45 296.42 81.62 297.06 81.21 297.38 C 80.84 297.66 80.10 298.23 79.73 298.51 C 78.97 314.03 78.74 329.58 79.41 345.11 C 79.61 347.28 80.19 349.40 80.68 351.52 L 80.80 352.23 C 90.17 353.08 99.58 352.85 108.97 352.89 C 196.31 352.88 283.64 352.89 370.98 352.89 C 387.36 352.62 403.80 353.55 420.15 352.15 C 421.15 343.13 420.82 334.05 420.90 325.00 C 420.83 315.95 421.12 306.89 420.18 297.88 L 419.30 297.74 C 411.39 295.41 403.09 295.93 394.95 295.82 C 302.63 295.83 210.30 295.82 117.97 295.83 C 110.82 295.74 103.65 296.17 96.53 295.43 C 95.79 295.06 94.33 294.34 93.60 293.97 Z" />
</g>
<g id="#eeffcbff">
<path fill="#eeffcb" opacity="1.00" d=" M 80.71 299.63 C 81.35 298.99 81.99 298.35 82.63 297.71 C 109.40 297.25 136.17 297.56 162.94 297.47 C 218.97 297.46 275.00 297.48 331.03 297.48 C 360.45 297.56 389.88 297.21 419.30 297.74 L 420.18 297.88 C 421.12 306.89 420.83 315.95 420.90 325.00 C 420.82 334.05 421.15 343.13 420.15 352.15 C 403.80 353.55 387.36 352.62 370.98 352.89 C 283.64 352.89 196.31 352.88 108.97 352.89 C 99.58 352.85 90.17 353.08 80.80 352.23 L 80.68 351.52 C 80.45 334.22 80.35 316.92 80.71 299.63 Z" />
</g>
<g id="#64aa42aa">
<path fill="#64aa42" opacity="0.67" d=" M 371.00 356.42 C 387.74 356.29 404.62 357.24 421.18 354.21 C 415.22 358.70 407.18 358.80 400.03 359.46 C 301.68 359.60 203.33 359.44 104.98 359.54 C 97.46 359.19 89.51 358.84 82.68 355.36 C 90.48 355.14 98.20 356.77 106.00 356.44 C 194.34 356.40 282.67 356.44 371.00 356.42 Z" />
</g>
<g id="#467e2d7e">
<path fill="#467e2d" opacity="0.49" d=" M 94.45 377.75 C 102.30 377.16 110.17 376.10 118.04 377.03 C 124.02 376.71 129.98 377.08 135.95 377.36 C 142.61 376.54 149.31 377.35 155.98 376.77 C 165.31 376.43 174.65 376.71 183.96 377.14 C 189.96 376.26 195.95 376.99 201.95 377.25 C 207.29 376.67 212.64 376.58 217.99 377.15 C 229.01 376.41 240.07 377.84 251.06 376.67 C 256.37 376.93 261.68 377.50 266.98 376.72 C 279.98 377.00 293.03 377.45 306.03 376.71 C 314.34 376.90 322.66 377.15 330.97 376.74 C 334.98 376.73 338.99 377.31 343.00 376.90 C 350.01 376.06 357.01 378.11 364.02 377.05 C 370.69 375.96 377.35 377.59 384.04 377.33 C 391.34 376.85 398.69 377.15 405.97 377.78 C 413.27 379.25 421.68 381.26 425.84 388.10 C 431.21 396.71 430.76 407.20 430.65 416.94 C 430.82 425.51 429.04 434.67 423.51 441.45 C 417.28 446.60 408.88 448.54 400.93 448.62 C 386.96 448.94 372.96 448.18 359.01 449.14 C 355.01 449.13 351.02 448.39 347.02 448.91 C 341.69 449.58 336.36 448.54 331.03 448.64 C 317.02 448.77 303.00 448.57 288.99 448.72 C 280.35 449.78 271.68 447.91 263.04 448.95 C 254.70 450.05 246.37 448.33 238.02 448.66 C 225.34 448.85 212.65 448.29 199.99 449.08 C 181.01 448.27 162.00 448.80 143.01 448.84 C 129.36 448.18 115.70 449.30 102.05 448.62 C 93.46 448.84 84.24 447.05 77.50 441.43 C 70.99 433.57 70.01 422.79 70.34 412.97 C 69.99 403.32 71.01 392.89 77.10 384.99 C 81.73 380.59 88.27 378.71 94.45 377.75 M 88.21 381.91 C 84.03 382.71 78.94 383.55 76.94 387.88 C 71.86 398.74 71.96 411.09 72.77 422.80 C 73.67 428.22 74.61 433.84 77.28 438.73 C 79.15 442.18 83.25 443.10 86.78 443.81 C 92.47 444.83 98.11 446.41 103.92 446.50 C 201.63 446.47 299.35 446.48 397.06 446.49 C 402.90 446.39 408.57 444.83 414.28 443.77 C 418.20 442.94 423.04 441.73 424.39 437.39 C 428.32 424.68 429.30 411.02 426.76 397.94 C 426.37 396.48 425.61 395.24 424.47 394.22 C 424.77 389.37 421.41 384.47 416.48 383.75 C 415.31 382.69 413.96 381.86 412.42 381.52 C 405.42 379.71 398.16 379.29 390.95 379.50 C 295.31 379.54 199.67 379.53 104.03 379.50 C 98.66 379.51 93.46 380.96 88.21 381.91 Z" />
</g>
<g id="#57983998">
<path fill="#579839" opacity="0.60" d=" M 88.21 381.91 C 93.46 380.96 98.66 379.51 104.03 379.50 C 199.67 379.53 295.31 379.54 390.95 379.50 C 398.16 379.29 405.42 379.71 412.42 381.52 C 413.96 381.86 415.31 382.69 416.48 383.75 C 408.30 383.68 400.19 382.16 392.00 382.57 C 302.33 382.60 212.66 382.57 122.99 382.58 C 112.99 382.71 102.96 382.12 93.00 383.30 C 88.47 383.89 83.26 383.45 79.54 386.55 C 76.66 389.96 76.89 394.75 76.40 398.95 C 75.70 406.50 75.07 414.11 75.95 421.68 C 76.55 426.76 76.33 432.04 77.99 436.94 C 79.06 440.34 82.78 441.59 85.97 441.97 C 91.65 442.64 97.36 443.15 103.07 443.42 C 192.37 443.42 281.67 443.42 370.98 443.42 C 383.36 443.19 395.79 444.05 408.13 442.65 C 412.43 442.17 417.17 442.43 420.92 439.92 C 423.82 437.39 424.00 433.16 424.38 429.59 C 424.70 422.06 426.09 414.54 425.18 407.00 C 424.71 402.76 424.45 398.49 424.47 394.22 C 425.61 395.24 426.37 396.48 426.76 397.94 C 429.30 411.02 428.32 424.68 424.39 437.39 C 423.04 441.73 418.20 442.94 414.28 443.77 C 408.57 444.83 402.90 446.39 397.06 446.49 C 299.35 446.48 201.63 446.47 103.92 446.50 C 98.11 446.41 92.47 444.83 86.78 443.81 C 83.25 443.10 79.15 442.18 77.28 438.73 C 74.61 433.84 73.67 428.22 72.77 422.80 C 71.96 411.09 71.86 398.74 76.94 387.88 C 78.94 383.55 84.03 382.71 88.21 381.91 Z" />
</g>
<g id="#9fe06de0">
<path fill="#9fe06d" opacity="0.88" d=" M 93.00 383.30 C 102.96 382.12 112.99 382.71 122.99 382.58 C 212.66 382.57 302.33 382.60 392.00 382.57 C 400.19 382.16 408.30 383.68 416.48 383.75 C 421.41 384.47 424.77 389.37 424.47 394.22 C 424.45 398.49 424.71 402.76 425.18 407.00 C 426.09 414.54 424.70 422.06 424.38 429.59 C 424.00 433.16 423.82 437.39 420.92 439.92 C 417.17 442.43 412.43 442.17 408.13 442.65 C 395.79 444.05 383.36 443.19 370.98 443.42 C 281.67 443.42 192.37 443.42 103.07 443.42 C 97.36 443.15 91.65 442.64 85.97 441.97 C 82.78 441.59 79.06 440.34 77.99 436.94 C 76.33 432.04 76.55 426.76 75.95 421.68 C 75.07 414.11 75.70 406.50 76.40 398.95 C 76.89 394.75 76.66 389.96 79.54 386.55 C 83.26 383.45 88.47 383.89 93.00 383.30 M 79.47 393.00 C 79.14 405.66 79.28 418.33 79.37 430.99 C 79.33 433.59 80.10 436.09 80.89 438.54 C 81.26 438.53 82.00 438.50 82.37 438.48 C 86.92 440.70 92.07 440.32 96.97 440.50 C 198.66 440.55 300.35 440.54 402.04 440.51 C 407.54 440.39 413.19 440.66 418.53 439.11 C 421.34 437.87 421.75 434.43 422.12 431.75 C 422.74 423.52 422.47 415.25 422.51 407.01 C 422.33 400.54 423.08 393.75 420.23 387.72 C 414.38 385.76 408.07 386.39 402.01 385.60 C 302.69 385.55 203.36 385.61 104.04 385.57 C 97.30 385.35 90.60 386.29 83.89 386.71 C 80.77 386.87 79.41 390.28 79.47 393.00 Z" />
</g>
<g id="#eeffccff">
<path fill="#eeffcc" opacity="1.00" d=" M 79.47 393.00 C 79.41 390.28 80.77 386.87 83.89 386.71 C 90.60 386.29 97.30 385.35 104.04 385.57 C 203.36 385.61 302.69 385.55 402.01 385.60 C 408.07 386.39 414.38 385.76 420.23 387.72 C 420.57 404.46 421.08 421.24 419.97 437.97 C 396.66 438.84 373.33 438.27 350.02 438.43 C 267.67 438.43 185.32 438.45 102.97 438.43 C 96.10 438.45 89.24 438.11 82.37 438.48 C 82.00 438.50 81.26 438.53 80.89 438.54 C 80.10 436.09 79.33 433.59 79.37 430.99 C 79.28 418.33 79.14 405.66 79.47 393.00 Z" />
</g>
<g id="#eafbadfb">
<path fill="#eafbad" opacity="1.00" d=" M 420.23 387.72 C 423.08 393.75 422.33 400.54 422.51 407.01 C 422.47 415.25 422.74 423.52 422.12 431.75 C 421.75 434.43 421.34 437.87 418.53 439.11 C 413.19 440.66 407.54 440.39 402.04 440.51 C 300.35 440.54 198.66 440.55 96.97 440.50 C 92.07 440.32 86.92 440.70 82.37 438.48 C 89.24 438.11 96.10 438.45 102.97 438.43 C 185.32 438.45 267.67 438.43 350.02 438.43 C 373.33 438.27 396.66 438.84 419.97 437.97 C 421.08 421.24 420.57 404.46 420.23 387.72 Z" />
</g>
</svg>
