<svg xmlns="http://www.w3.org/2000/svg" viewBox="31 -1660 10855 1782" width="731" height="120" role="img" aria-label="HoloRaid">
  <title>HoloRaid</title>
  <defs>
    <linearGradient id="wm" gradientUnits="userSpaceOnUse" x1="153" y1="0" x2="10239" y2="0">
      <stop offset="0%" stop-color="#76C8FF"/>
      <stop offset="100%" stop-color="#7E7BFF"/>
    </linearGradient>
    <filter id="g" x="-25%" y="-60%" width="150%" height="220%"><feDropShadow dx="0" dy="0" stdDeviation="34" flood-color="#4AB4FF" flood-opacity="0.45"/></filter>
  </defs>
  <g class="wordmark" transform="scale(1 -1)" filter="url(#g)">
    <g fill="url(#wm)">
      <path d="M413 848H1326V1434H1586V0H1326V586H413V0H153V1434H413Z"/>
      <path d="M3067.1176470588234 365Q3067.1176470588234 298 3050.1176470588234 244.5Q3033.1176470588234 191 3005.1176470588234 150.5Q2977.1176470588234 110 2940.1176470588234 81.5Q2903.1176470588234 53 2862.6176470588234 35.0Q2822.1176470588234 17 2780.6176470588234 8.5Q2739.1176470588234 0 2702.1176470588234 0H2233.1176470588234Q2179.1176470588234 0 2115.1176470588234 19.0Q2051.1176470588234 38 1996.6176470588234 81.5Q1942.1176470588234 125 1905.6176470588234 194.5Q1869.1176470588234 264 1869.1176470588234 365V717Q1869.1176470588234 817 1905.6176470588234 886.5Q1942.1176470588234 956 1996.6176470588234 999.5Q2051.1176470588234 1043 2115.1176470588234 1062.0Q2179.1176470588234 1081 2233.1176470588234 1081H2702.1176470588234Q2802.1176470588234 1081 2872.1176470588234 1045.0Q2942.1176470588234 1009 2985.1176470588234 954.5Q3028.1176470588234 900 3047.6176470588234 836.0Q3067.1176470588234 772 3067.1176470588234 717ZM2807.1176470588234 715Q2807.1176470588234 769 2780.1176470588234 795.0Q2753.1176470588234 821 2702.1176470588234 821H2235.1176470588234Q2183.1176470588234 821 2156.1176470588234 794.5Q2129.1176470588234 768 2129.1176470588234 717V365Q2129.1176470588234 314 2156.1176470588234 287.0Q2183.1176470588234 260 2235.1176470588234 260H2702.1176470588234Q2755.1176470588234 260 2781.1176470588234 287.0Q2807.1176470588234 314 2807.1176470588234 365Z"/>
      <path d="M3793.235294117647 0H3677.235294117647Q3621.235294117647 0 3557.735294117647 19.0Q3494.235294117647 38 3439.235294117647 81.5Q3384.235294117647 125 3348.235294117647 194.5Q3312.235294117647 264 3312.235294117647 365V1538H3572.235294117647V365Q3572.235294117647 317 3602.235294117647 288.5Q3632.235294117647 260 3677.235294117647 260H3793.235294117647Z"/>
      <path d="M5166.35294117647 365Q5166.35294117647 298 5149.35294117647 244.5Q5132.35294117647 191 5104.35294117647 150.5Q5076.35294117647 110 5039.35294117647 81.5Q5002.35294117647 53 4961.85294117647 35.0Q4921.35294117647 17 4879.85294117647 8.5Q4838.35294117647 0 4801.35294117647 0H4332.35294117647Q4278.35294117647 0 4214.35294117647 19.0Q4150.35294117647 38 4095.8529411764703 81.5Q4041.3529411764703 125 4004.8529411764703 194.5Q3968.3529411764703 264 3968.3529411764703 365V717Q3968.3529411764703 817 4004.8529411764703 886.5Q4041.3529411764703 956 4095.8529411764703 999.5Q4150.35294117647 1043 4214.35294117647 1062.0Q4278.35294117647 1081 4332.35294117647 1081H4801.35294117647Q4901.35294117647 1081 4971.35294117647 1045.0Q5041.35294117647 1009 5084.35294117647 954.5Q5127.35294117647 900 5146.85294117647 836.0Q5166.35294117647 772 5166.35294117647 717ZM4906.35294117647 715Q4906.35294117647 769 4879.35294117647 795.0Q4852.35294117647 821 4801.35294117647 821H4334.35294117647Q4282.35294117647 821 4255.35294117647 794.5Q4228.35294117647 768 4228.35294117647 717V365Q4228.35294117647 314 4255.35294117647 287.0Q4282.35294117647 260 4334.35294117647 260H4801.35294117647Q4854.35294117647 260 4880.35294117647 287.0Q4906.35294117647 314 4906.35294117647 365Z"/>
      <path d="M6879.470588235294 952Q6879.470588235294 863 6857.470588235294 793.0Q6835.470588235294 723 6797.970588235294 669.5Q6760.470588235294 616 6711.470588235294 578.0Q6662.470588235294 540 6608.970588235294 515.5Q6555.470588235294 491 6500.970588235294 480.0Q6446.470588235294 469 6398.470588235294 469L6941.470588235294 0H6539.470588235294L5997.470588235294 469H5810.470588235294V729H6398.470588235294Q6447.470588235294 733 6487.970588235294 749.5Q6528.470588235294 766 6557.970588235294 794.0Q6587.470588235294 822 6603.470588235294 861.5Q6619.470588235294 901 6619.470588235294 952V1116Q6619.470588235294 1138 6613.970588235294 1149.5Q6608.470588235294 1161 6599.970588235294 1166.5Q6591.470588235294 1172 6581.970588235294 1173.0Q6572.470588235294 1174 6564.470588235294 1174H5706.470588235294V0H5446.470588235294V1303Q5446.470588235294 1330 5456.470588235294 1354.0Q5466.470588235294 1378 5483.970588235294 1396.0Q5501.470588235294 1414 5525.470588235294 1424.0Q5549.470588235294 1434 5577.470588235294 1434H6564.470588235294Q6651.470588235294 1434 6711.470588235294 1402.5Q6771.470588235294 1371 6808.970588235294 1323.5Q6846.470588235294 1276 6862.970588235294 1221.0Q6879.470588235294 1166 6879.470588235294 1118Z"/>
      <path d="M8257.588235294117 358Q8257.588235294117 304 8238.588235294117 241.5Q8219.588235294117 179 8177.088235294117 125.5Q8134.588235294117 72 8066.088235294117 36.0Q7997.588235294117 0 7899.588235294117 0H7430.588235294117Q7376.588235294117 0 7314.088235294117 19.0Q7251.588235294117 38 7198.088235294117 80.5Q7144.588235294117 123 7108.588235294117 191.5Q7072.588235294117 260 7072.588235294117 358Q7072.588235294117 412 7091.588235294117 475.0Q7110.588235294117 538 7153.088235294117 591.5Q7195.588235294117 645 7264.088235294117 681.0Q7332.588235294117 717 7430.588235294117 717H7899.588235294117V469H7430.588235294117Q7377.588235294117 469 7348.588235294117 436.5Q7319.588235294117 404 7319.588235294117 356Q7319.588235294117 305 7353.088235294117 276.5Q7386.588235294117 248 7432.588235294117 248H7899.588235294117Q7952.588235294117 248 7981.588235294117 280.0Q8010.588235294117 312 8010.588235294117 360V723Q8010.588235294117 774 7979.088235294117 804.0Q7947.588235294117 834 7899.588235294117 834H7328.588235294117V1081H7899.588235294117Q7953.588235294117 1081 8016.088235294117 1062.0Q8078.588235294117 1043 8132.088235294117 1000.5Q8185.588235294117 958 8221.588235294117 889.5Q8257.588235294117 821 8257.588235294117 723Z"/>
      <path d="M8773.70588235294 1303H8513.70588235294V1538H8773.70588235294ZM8773.70588235294 0H8513.70588235294V1081H8773.70588235294Z"/>
      <path d="M10238.823529411764 365Q10238.823529411764 298 10221.823529411764 244.5Q10204.823529411764 191 10176.823529411764 150.5Q10148.823529411764 110 10111.823529411764 81.5Q10074.823529411764 53 10034.323529411764 35.0Q9993.823529411764 17 9952.323529411764 8.5Q9910.823529411764 0 9873.823529411764 0H9404.823529411764Q9337.823529411764 0 9284.823529411764 17.0Q9231.823529411764 34 9191.323529411764 62.5Q9150.823529411764 91 9122.323529411764 128.0Q9093.823529411764 165 9075.823529411764 205.5Q9057.823529411764 246 9049.323529411764 287.5Q9040.823529411764 329 9040.823529411764 365V717Q9040.823529411764 817 9077.323529411764 886.5Q9113.823529411764 956 9168.323529411764 999.5Q9222.823529411764 1043 9286.823529411764 1062.0Q9350.823529411764 1081 9404.823529411764 1081H9873.823529411764V821H9406.823529411764Q9354.823529411764 821 9327.823529411764 794.5Q9300.823529411764 768 9300.823529411764 717V367Q9300.823529411764 314 9327.323529411764 287.0Q9353.823529411764 260 9404.823529411764 260H9873.823529411764Q9926.823529411764 260 9952.823529411764 287.0Q9978.823529411764 314 9978.823529411764 365V1538H10238.823529411764Z"/>
    </g>
    <path d="M10764.05882352941 131Q10764.05882352941 104 10753.55882352941 80.5Q10743.05882352941 57 10725.55882352941 39.5Q10708.05882352941 22 10684.55882352941 12.0Q10661.05882352941 2 10635.05882352941 2Q10608.05882352941 2 10584.55882352941 12.0Q10561.05882352941 22 10543.55882352941 39.5Q10526.05882352941 57 10516.05882352941 80.5Q10506.05882352941 104 10506.05882352941 131Q10506.05882352941 157 10516.05882352941 180.5Q10526.05882352941 204 10543.55882352941 221.5Q10561.05882352941 239 10584.55882352941 249.5Q10608.05882352941 260 10635.05882352941 260Q10661.05882352941 260 10684.55882352941 249.5Q10708.05882352941 239 10725.55882352941 221.5Q10743.05882352941 204 10753.55882352941 180.5Q10764.05882352941 157 10764.05882352941 131Z" fill="#9AA0C3"/>
  </g>
</svg>
