<?xml version="1.0" encoding="UTF-8" ?>
<!DOCTYPE svg PUBLIC "-//W3C//DTD SVG 1.1//EN" "http://www.w3.org/Graphics/SVG/1.1/DTD/svg11.dtd">
<svg width="500pt" height="500pt" viewBox="0 0 500 500" version="1.1" xmlns="http://www.w3.org/2000/svg">
<g id="#00001616">
<path fill="#000016" opacity="0.09" d=" M 102.31 28.98 C 105.84 28.38 109.43 28.39 113.00 28.41 C 119.68 28.51 126.44 28.00 133.03 29.42 C 150.60 31.90 166.83 39.87 184.41 42.23 C 189.66 42.43 194.82 43.61 200.09 43.45 C 234.07 43.47 268.05 43.51 302.04 43.44 C 312.12 42.78 322.22 41.62 331.94 38.70 C 348.56 33.72 365.42 27.59 383.04 28.42 C 400.96 27.75 420.13 31.90 433.73 44.26 C 444.02 53.60 449.50 67.09 451.76 80.58 C 453.52 88.94 453.52 97.49 454.51 105.94 C 454.56 146.95 454.49 187.96 454.55 228.97 C 454.59 234.02 453.27 238.97 453.54 244.04 C 453.04 252.64 451.67 261.21 449.88 269.64 C 445.13 293.08 433.48 314.47 419.99 333.97 C 409.65 349.06 397.72 363.00 385.42 376.51 C 376.73 385.11 368.16 393.84 359.46 402.43 C 339.84 420.32 319.65 437.66 298.02 453.09 C 286.28 461.50 272.44 467.11 258.04 468.54 C 252.00 468.59 245.94 468.79 239.92 468.38 C 230.17 466.86 220.54 464.02 211.87 459.24 C 205.68 456.01 200.13 451.74 194.48 447.67 C 175.90 433.71 158.25 418.56 141.06 402.95 C 132.23 394.11 123.34 385.33 114.55 376.46 C 89.84 349.33 66.33 319.73 54.09 284.67 C 49.43 269.65 46.60 253.98 46.26 238.24 C 45.60 234.18 45.30 230.09 45.45 225.98 C 45.51 189.67 45.44 153.36 45.48 117.06 C 45.50 111.24 45.13 105.37 46.19 99.61 C 46.90 83.22 49.52 65.98 59.22 52.29 C 68.94 38.21 85.75 30.93 102.31 28.98 M 108.25 37.06 C 95.16 38.70 81.83 42.86 71.94 51.93 C 64.81 59.26 60.19 68.74 57.48 78.53 C 55.21 89.21 54.08 100.10 53.50 111.00 C 53.47 150.00 53.43 189.01 53.52 228.01 C 53.46 231.43 54.02 234.81 54.31 238.21 C 55.40 263.48 62.36 288.64 75.50 310.34 C 88.19 332.52 104.40 352.51 121.97 370.99 C 127.37 377.57 133.69 383.31 139.70 389.32 C 145.93 394.39 151.30 400.40 157.52 405.50 C 172.77 419.38 188.92 432.25 205.37 444.67 C 214.77 450.99 224.91 456.69 236.11 459.01 C 251.57 462.65 268.23 459.83 282.09 452.22 C 294.36 446.05 304.67 436.85 315.44 428.49 C 328.88 417.68 342.05 406.49 354.41 394.46 C 363.17 386.89 371.47 378.73 378.97 369.90 C 393.03 355.42 405.68 339.58 416.94 322.83 C 422.63 313.35 428.78 304.07 432.99 293.79 C 440.19 278.16 443.74 261.08 445.39 244.03 C 445.40 238.31 446.55 232.68 446.48 226.97 C 446.52 187.64 446.60 148.31 446.45 108.99 C 445.05 94.77 444.65 79.90 438.21 66.83 C 435.74 61.60 432.57 56.63 428.58 52.44 C 417.48 41.84 401.90 37.85 387.00 36.57 C 381.63 36.11 376.33 37.29 370.98 37.50 C 359.19 38.36 348.36 43.62 336.80 45.65 C 326.72 48.21 316.49 50.77 306.02 50.62 C 268.68 50.67 231.33 50.62 193.98 50.63 C 181.17 50.74 168.83 46.89 156.44 44.14 C 148.04 41.78 139.75 38.77 131.04 37.68 C 123.46 37.19 115.83 35.67 108.25 37.06 Z" />
</g>
<g id="#00002829">
<path fill="#000028" opacity="0.16" d=" M 108.25 37.06 C 115.83 35.67 123.46 37.19 131.04 37.68 C 139.75 38.77 148.04 41.78 156.44 44.14 C 168.83 46.89 181.17 50.74 193.98 50.63 C 231.33 50.62 268.68 50.67 306.02 50.62 C 316.49 50.77 326.72 48.21 336.80 45.65 C 348.36 43.62 359.19 38.36 370.98 37.50 C 376.33 37.29 381.63 36.11 387.00 36.57 C 401.90 37.85 417.48 41.84 428.58 52.44 C 432.57 56.63 435.74 61.60 438.21 66.83 C 444.65 79.90 445.05 94.77 446.45 108.99 C 446.60 148.31 446.52 187.64 446.48 226.97 C 446.55 232.68 445.40 238.31 445.39 244.03 C 443.74 261.08 440.19 278.16 432.99 293.79 C 428.78 304.07 422.63 313.35 416.94 322.83 C 405.68 339.58 393.03 355.42 378.97 369.90 C 371.47 378.73 363.17 386.89 354.41 394.46 C 342.05 406.49 328.88 417.68 315.44 428.49 C 304.67 436.85 294.36 446.05 282.09 452.22 C 268.23 459.83 251.57 462.65 236.11 459.01 C 224.91 456.69 214.77 450.99 205.37 444.67 C 188.92 432.25 172.77 419.38 157.52 405.50 C 151.30 400.40 145.93 394.39 139.70 389.32 C 133.69 383.31 127.37 377.57 121.97 370.99 C 104.40 352.51 88.19 332.52 75.50 310.34 C 62.36 288.64 55.40 263.48 54.31 238.21 C 54.02 234.81 53.46 231.43 53.52 228.01 C 53.43 189.01 53.47 150.00 53.50 111.00 C 54.08 100.10 55.21 89.21 57.48 78.53 C 60.19 68.74 64.81 59.26 71.94 51.93 C 81.83 42.86 95.16 38.70 108.25 37.06 M 92.63 44.73 C 83.56 47.36 74.01 51.53 69.21 60.18 C 62.09 73.29 59.94 88.38 58.50 103.03 C 58.26 143.68 58.42 184.34 58.42 224.99 C 58.05 246.08 61.18 267.38 68.96 287.07 C 80.89 315.38 100.07 339.82 120.31 362.64 C 124.49 367.12 129.13 371.18 132.97 375.99 C 137.27 381.40 143.13 385.21 147.84 390.22 C 151.08 393.62 154.43 396.92 158.05 399.93 C 177.17 417.00 196.69 433.85 218.42 447.55 C 225.73 452.32 234.30 455.17 243.02 455.64 C 255.29 457.30 268.28 455.12 279.12 449.04 C 302.87 434.53 323.88 416.10 344.58 397.63 C 349.40 393.45 353.48 388.50 358.39 384.43 C 365.47 378.84 370.45 371.16 377.22 365.23 C 390.08 351.25 402.14 336.49 412.77 320.73 C 422.05 306.27 430.79 291.11 435.31 274.40 C 439.37 261.66 440.69 248.29 441.55 235.02 C 441.61 191.35 441.70 147.67 441.52 104.00 C 440.52 92.84 439.15 81.49 435.34 70.90 C 434.60 72.28 434.02 73.75 433.83 75.32 C 433.68 70.71 432.00 66.35 430.38 62.09 C 426.31 54.43 418.48 48.76 409.74 48.03 C 410.46 47.79 411.91 47.32 412.64 47.08 C 407.93 43.88 402.03 43.63 396.63 42.46 C 390.52 41.04 384.21 41.32 377.99 41.41 C 364.65 41.81 351.81 45.84 339.32 50.21 C 326.65 54.46 313.23 55.60 299.98 56.38 C 265.99 56.38 232.00 56.43 198.00 56.36 C 184.96 55.50 171.77 54.06 159.34 49.77 C 145.76 44.93 131.59 40.95 117.03 41.35 C 108.76 40.94 100.61 42.77 92.63 44.73 Z" />
</g>
<g id="#04043d3e">
<path fill="#04043d" opacity="0.24" d=" M 92.63 44.73 C 100.61 42.77 108.76 40.94 117.03 41.35 C 131.59 40.95 145.76 44.93 159.34 49.77 C 171.77 54.06 184.96 55.50 198.00 56.36 C 232.00 56.43 265.99 56.38 299.98 56.38 C 313.23 55.60 326.65 54.46 339.32 50.21 C 351.81 45.84 364.65 41.81 377.99 41.41 C 384.21 41.32 390.52 41.04 396.63 42.46 C 402.03 43.63 407.93 43.88 412.64 47.08 C 411.91 47.32 410.46 47.79 409.74 48.03 C 397.25 46.33 384.56 44.52 371.97 46.24 C 366.69 46.39 361.47 47.28 356.38 48.66 C 346.38 51.06 337.73 57.32 327.51 58.99 C 319.83 60.96 311.87 60.45 304.07 61.49 C 274.38 61.69 244.70 61.52 215.01 61.57 C 206.00 61.47 196.94 62.02 187.98 60.72 C 182.22 60.74 176.52 59.96 170.92 58.65 C 162.38 56.98 155.02 52.03 146.77 49.53 C 135.21 45.97 122.95 45.43 110.94 45.68 C 102.95 46.48 94.77 46.69 87.10 49.31 C 77.29 52.48 69.62 61.17 67.40 71.20 C 64.87 81.95 64.48 93.05 63.62 104.02 C 63.56 147.34 63.53 190.66 63.64 233.97 C 64.48 240.70 64.42 247.50 65.27 254.24 C 66.37 268.97 71.14 283.21 77.74 296.36 C 90.21 321.23 107.72 343.16 126.51 363.52 C 138.56 375.78 150.56 388.10 163.50 399.44 C 182.02 415.74 201.04 431.60 221.60 445.30 C 229.86 450.98 240.10 453.15 250.02 452.51 C 259.21 453.07 268.67 451.33 276.57 446.44 C 290.46 437.65 303.28 427.33 316.02 416.98 C 331.31 404.35 346.21 391.21 360.10 377.04 C 381.77 355.78 401.86 332.52 417.04 306.12 C 425.12 291.97 431.66 276.69 434.25 260.53 C 435.35 250.71 435.61 240.84 436.41 231.01 C 436.43 195.35 436.42 159.68 436.42 124.01 C 436.85 107.72 435.65 91.48 433.83 75.32 C 434.02 73.75 434.60 72.28 435.34 70.90 C 439.15 81.49 440.52 92.84 441.52 104.00 C 441.70 147.67 441.61 191.35 441.55 235.02 C 440.69 248.29 439.37 261.66 435.31 274.40 C 430.79 291.11 422.05 306.27 412.77 320.73 C 402.14 336.49 390.08 351.25 377.22 365.23 C 370.45 371.16 365.47 378.84 358.39 384.43 C 353.48 388.50 349.40 393.45 344.58 397.63 C 323.88 416.10 302.87 434.53 279.12 449.04 C 268.28 455.12 255.29 457.30 243.02 455.64 C 234.30 455.17 225.73 452.32 218.42 447.55 C 196.69 433.85 177.17 417.00 158.05 399.93 C 154.43 396.92 151.08 393.62 147.84 390.22 C 143.13 385.21 137.27 381.40 132.97 375.99 C 129.13 371.18 124.49 367.12 120.31 362.64 C 100.07 339.82 80.89 315.38 68.96 287.07 C 61.18 267.38 58.05 246.08 58.42 224.99 C 58.42 184.34 58.26 143.68 58.50 103.03 C 59.94 88.38 62.09 73.29 69.21 60.18 C 74.01 51.53 83.56 47.36 92.63 44.73 Z" />
</g>
<g id="#0e0e5d5f">
<path fill="#0e0e5d" opacity="0.37" d=" M 87.10 49.31 C 94.77 46.69 102.95 46.48 110.94 45.68 C 122.95 45.43 135.21 45.97 146.77 49.53 C 155.02 52.03 162.38 56.98 170.92 58.65 C 176.52 59.96 182.22 60.74 187.98 60.72 C 196.94 62.02 206.00 61.47 215.01 61.57 C 244.70 61.52 274.38 61.69 304.07 61.49 C 311.87 60.45 319.83 60.96 327.51 58.99 C 337.73 57.32 346.38 51.06 356.38 48.66 C 361.47 47.28 366.69 46.39 371.97 46.24 C 384.56 44.52 397.25 46.33 409.74 48.03 C 418.48 48.76 426.31 54.43 430.38 62.09 C 432.00 66.35 433.68 70.71 433.83 75.32 C 435.65 91.48 436.85 107.72 436.42 124.01 C 436.42 159.68 436.43 195.35 436.41 231.01 C 435.61 240.84 435.35 250.71 434.25 260.53 C 431.66 276.69 425.12 291.97 417.04 306.12 C 401.86 332.52 381.77 355.78 360.10 377.04 C 346.21 391.21 331.31 404.35 316.02 416.98 C 303.28 427.33 290.46 437.65 276.57 446.44 C 268.67 451.33 259.21 453.07 250.02 452.51 C 240.10 453.15 229.86 450.98 221.60 445.30 C 201.04 431.60 182.02 415.74 163.50 399.44 C 150.56 388.10 138.56 375.78 126.51 363.52 C 107.72 343.16 90.21 321.23 77.74 296.36 C 71.14 283.21 66.37 268.97 65.27 254.24 C 64.42 247.50 64.48 240.70 63.64 233.97 C 63.53 190.66 63.56 147.34 63.62 104.02 C 64.48 93.05 64.87 81.95 67.40 71.20 C 69.62 61.17 77.29 52.48 87.10 49.31 M 115.40 48.57 C 111.24 48.51 107.06 48.47 102.98 49.37 C 90.37 49.41 77.76 56.58 72.23 68.10 C 68.80 74.62 68.49 82.04 67.57 89.17 C 67.16 113.11 67.47 137.06 67.37 161.00 C 67.46 189.35 67.18 217.70 67.54 246.05 C 67.44 248.03 67.92 249.96 68.32 251.88 C 68.29 259.97 70.52 267.85 72.88 275.52 C 82.99 304.47 101.79 329.36 121.67 352.31 C 132.02 363.57 142.33 374.92 153.80 385.07 C 172.36 402.67 192.06 419.08 212.58 434.34 C 219.93 439.43 226.97 445.48 235.76 447.88 C 242.55 450.51 249.94 449.27 257.04 449.47 C 269.21 448.31 279.06 440.44 288.57 433.48 C 309.67 417.83 329.64 400.72 348.80 382.79 C 370.51 362.04 390.89 339.67 407.44 314.53 C 418.79 297.05 428.57 277.88 431.48 257.02 C 431.25 253.61 432.14 250.33 432.44 246.98 C 432.84 216.33 432.53 185.67 432.63 155.02 C 432.53 132.99 432.84 110.96 432.42 88.94 C 431.49 83.70 431.63 78.28 429.79 73.22 C 426.47 61.67 416.31 52.69 404.60 50.32 C 396.51 48.76 388.25 48.36 380.00 48.54 C 376.13 48.18 372.45 49.70 368.59 49.51 C 358.58 50.53 349.33 54.95 340.59 59.73 C 336.41 62.10 331.77 63.46 327.09 64.41 C 320.06 64.93 312.95 64.10 305.98 65.34 C 267.32 65.40 228.66 65.37 190.01 65.35 C 181.14 63.84 171.72 65.83 163.35 61.63 C 152.20 56.09 140.86 49.28 127.99 49.36 C 123.88 48.25 119.62 48.57 115.40 48.57 Z" />
</g>
<g id="#26258e8e">
<path fill="#26258e" opacity="0.56" d=" M 115.40 48.57 C 119.62 48.57 123.88 48.25 127.99 49.36 C 140.86 49.28 152.20 56.09 163.35 61.63 C 171.72 65.83 181.14 63.84 190.01 65.35 C 228.66 65.37 267.32 65.40 305.98 65.34 C 312.95 64.10 320.06 64.93 327.09 64.41 C 331.77 63.46 336.41 62.10 340.59 59.73 C 349.33 54.95 358.58 50.53 368.59 49.51 C 372.45 49.70 376.13 48.18 380.00 48.54 C 388.25 48.36 396.51 48.76 404.60 50.32 C 416.31 52.69 426.47 61.67 429.79 73.22 C 431.63 78.28 431.49 83.70 432.42 88.94 C 432.84 110.96 432.53 132.99 432.63 155.02 C 432.53 185.67 432.84 216.33 432.44 246.98 C 432.14 250.33 431.25 253.61 431.48 257.02 C 428.57 277.88 418.79 297.05 407.44 314.53 C 390.89 339.67 370.51 362.04 348.80 382.79 C 329.64 400.72 309.67 417.83 288.57 433.48 C 279.06 440.44 269.21 448.31 257.04 449.47 C 249.94 449.27 242.55 450.51 235.76 447.88 C 226.97 445.48 219.93 439.43 212.58 434.34 C 192.06 419.08 172.36 402.67 153.80 385.07 C 142.33 374.92 132.02 363.57 121.67 352.31 C 101.79 329.36 82.99 304.47 72.88 275.52 C 70.52 267.85 68.29 259.97 68.32 251.88 C 67.92 249.96 67.44 248.03 67.54 246.05 C 67.18 217.70 67.46 189.35 67.37 161.00 C 67.47 137.06 67.16 113.11 67.57 89.17 C 68.49 82.04 68.80 74.62 72.23 68.10 C 77.76 56.58 90.37 49.41 102.98 49.37 C 107.06 48.47 111.24 48.51 115.40 48.57 M 94.83 54.28 C 86.43 56.68 79.42 62.97 75.34 70.59 C 71.72 77.51 71.78 85.44 70.60 92.95 C 70.49 142.64 70.54 192.34 70.58 242.04 C 71.01 245.36 71.76 248.65 71.53 252.05 C 73.56 272.62 83.13 291.58 93.95 308.91 C 104.44 325.41 116.80 340.65 129.98 355.05 C 140.39 365.63 150.90 376.11 161.49 386.52 C 182.13 405.05 203.32 423.15 226.25 438.86 C 237.20 446.59 252.38 449.13 264.69 443.46 C 266.88 444.12 268.76 442.80 270.55 441.77 C 287.50 431.84 302.16 418.60 317.42 406.35 C 319.76 404.01 323.45 402.37 324.04 398.82 C 327.70 397.08 330.04 393.63 333.14 391.16 C 338.21 387.28 342.46 382.48 347.05 378.07 C 354.98 370.33 362.72 362.40 370.53 354.54 C 390.35 332.59 408.82 308.79 420.68 281.49 C 425.16 270.49 428.61 258.85 428.61 246.91 C 428.93 244.96 429.61 243.05 429.44 241.04 C 429.43 191.68 429.53 142.31 429.38 92.94 C 428.33 87.27 428.45 81.42 426.75 75.86 C 424.44 67.71 418.42 60.92 411.18 56.73 C 403.79 52.81 395.22 52.13 386.99 52.35 C 380.66 52.57 374.19 51.80 368.01 53.38 C 354.59 54.74 344.27 64.95 331.19 67.39 C 327.73 67.32 324.46 68.76 320.99 68.50 C 274.67 68.58 228.34 68.56 182.01 68.51 C 178.98 68.45 175.87 68.76 172.94 67.76 C 164.41 67.54 156.68 63.28 149.35 59.28 C 140.92 54.91 131.53 52.24 122.01 52.39 C 112.93 52.49 103.63 51.57 94.83 54.28 Z" />
</g>
<g id="#4544c0c0">
<path fill="#4544c0" opacity="0.75" d=" M 94.83 54.28 C 103.63 51.57 112.93 52.49 122.01 52.39 C 131.53 52.24 140.92 54.91 149.35 59.28 C 156.68 63.28 164.41 67.54 172.94 67.76 C 175.87 68.76 178.98 68.45 182.01 68.51 C 228.34 68.56 274.67 68.58 320.99 68.50 C 324.46 68.76 327.73 67.32 331.19 67.39 C 344.27 64.95 354.59 54.74 368.01 53.38 C 374.19 51.80 380.66 52.57 386.99 52.35 C 395.22 52.13 403.79 52.81 411.18 56.73 C 418.42 60.92 424.44 67.71 426.75 75.86 C 428.45 81.42 428.33 87.27 429.38 92.94 C 429.53 142.31 429.43 191.68 429.44 241.04 C 429.61 243.05 428.93 244.96 428.61 246.91 C 428.61 258.85 425.16 270.49 420.68 281.49 C 408.82 308.79 390.35 332.59 370.53 354.54 C 362.72 362.40 354.98 370.33 347.05 378.07 C 342.46 382.48 338.21 387.28 333.14 391.16 C 330.04 393.63 327.70 397.08 324.04 398.82 C 321.78 399.87 319.74 401.31 317.89 402.97 C 311.00 409.08 303.72 414.73 296.51 420.46 C 288.23 426.95 280.01 433.61 271.01 439.10 C 268.83 440.44 266.71 441.87 264.69 443.46 C 252.38 449.13 237.20 446.59 226.25 438.86 C 203.32 423.15 182.13 405.05 161.49 386.52 C 150.90 376.11 140.39 365.63 129.98 355.05 C 116.80 340.65 104.44 325.41 93.95 308.91 C 83.13 291.58 73.56 272.62 71.53 252.05 C 71.76 248.65 71.01 245.36 70.58 242.04 C 70.54 192.34 70.49 142.64 70.60 92.95 C 71.78 85.44 71.72 77.51 75.34 70.59 C 79.42 62.97 86.43 56.68 94.83 54.28 M 97.74 57.35 C 94.72 58.34 91.06 58.74 88.86 61.24 C 79.07 66.53 75.11 78.47 75.45 89.04 C 75.41 142.65 75.32 196.27 75.50 249.88 C 76.70 266.79 83.27 282.87 91.71 297.42 C 109.49 328.35 133.90 354.78 159.56 379.31 C 164.65 383.23 168.80 388.20 173.84 392.18 C 189.78 406.34 206.48 419.64 223.61 432.34 C 229.56 436.61 235.89 440.80 243.13 442.43 C 249.42 442.35 256.14 443.64 262.02 440.79 C 271.66 436.83 279.51 429.78 287.85 423.73 C 300.73 413.71 313.48 403.50 325.65 392.64 C 330.69 388.72 334.80 383.75 339.86 379.85 C 364.40 356.51 387.69 331.39 405.33 302.31 C 416.10 284.43 425.35 264.33 424.54 243.00 C 424.62 191.64 424.62 140.29 424.55 88.93 C 424.95 78.20 420.68 66.55 411.03 60.94 C 401.24 55.09 389.49 56.55 378.60 56.45 C 367.24 56.01 356.09 60.15 346.69 66.32 C 345.53 66.51 344.41 66.82 343.38 67.38 C 337.03 70.55 329.99 72.77 322.83 72.53 C 273.60 72.63 224.38 72.67 175.16 72.51 C 159.32 72.41 147.46 59.79 132.26 57.20 C 127.95 55.87 123.37 56.97 119.02 55.92 C 116.06 55.41 112.97 55.40 110.02 56.02 C 105.97 56.88 101.71 55.95 97.74 57.35 Z" />
</g>
<g id="#6563e2e2">
<path fill="#6563e2" opacity="0.89" d=" M 97.74 57.35 C 101.71 55.95 105.97 56.88 110.02 56.02 C 112.97 55.40 116.06 55.41 119.02 55.92 C 123.37 56.97 127.95 55.87 132.26 57.20 C 147.46 59.79 159.32 72.41 175.16 72.51 C 224.38 72.67 273.60 72.63 322.83 72.53 C 329.99 72.77 337.03 70.55 343.38 67.38 C 344.41 66.82 345.53 66.51 346.69 66.32 C 355.28 65.61 362.49 56.62 371.45 60.37 C 363.83 61.21 356.63 64.32 350.13 68.28 C 343.94 71.94 337.49 75.77 330.19 76.48 C 327.12 76.63 324.12 77.48 321.04 77.44 C 275.37 77.40 229.69 77.38 184.02 77.44 C 178.72 77.82 173.54 76.66 168.28 76.34 C 157.23 74.54 148.91 66.23 138.50 62.74 C 135.41 61.74 132.29 60.56 129.01 60.52 C 122.20 60.67 115.46 58.71 108.66 59.90 C 104.53 60.91 100.14 59.91 96.10 61.34 C 93.38 62.14 90.80 63.32 88.29 64.62 C 88.43 63.78 88.72 62.08 88.86 61.24 C 91.06 58.74 94.72 58.34 97.74 57.35 Z" />
</g>
<g id="#6c6ae3e4">
<path fill="#6c6ae3" opacity="0.89" d=" M 378.60 56.45 C 389.49 56.55 401.24 55.09 411.03 60.94 C 420.68 66.55 424.95 78.20 424.55 88.93 C 424.62 140.29 424.62 191.64 424.54 243.00 C 425.35 264.33 416.10 284.43 405.33 302.31 C 387.69 331.39 364.40 356.51 339.86 379.85 C 334.80 383.75 330.69 388.72 325.65 392.64 C 313.48 403.50 300.73 413.71 287.85 423.73 C 279.51 429.78 271.66 436.83 262.02 440.79 C 256.14 443.64 249.42 442.35 243.13 442.43 C 235.89 440.80 229.56 436.61 223.61 432.34 C 206.48 419.64 189.78 406.34 173.84 392.18 C 168.80 388.20 164.65 383.23 159.56 379.31 C 133.90 354.78 109.49 328.35 91.71 297.42 C 83.27 282.87 76.70 266.79 75.50 249.88 C 75.32 196.27 75.41 142.65 75.45 89.04 C 75.11 78.47 79.07 66.53 88.86 61.24 C 88.72 62.08 88.43 63.78 88.29 64.62 C 81.98 70.17 79.27 78.77 79.47 86.99 C 79.51 140.67 79.43 194.35 79.52 248.03 C 80.43 265.65 87.69 282.22 96.50 297.27 C 114.17 327.54 138.40 353.28 163.71 377.26 C 181.18 393.63 199.61 408.97 218.70 423.42 C 225.75 428.58 232.51 434.43 240.69 437.75 C 243.62 439.02 246.88 438.63 249.99 438.78 C 253.10 438.63 256.38 439.02 259.32 437.75 C 266.37 434.89 272.38 430.10 278.42 425.57 C 305.14 405.56 330.62 383.83 353.95 359.93 C 368.29 345.76 381.40 330.34 393.00 313.84 C 404.34 297.32 414.83 279.55 419.04 259.74 C 419.66 254.86 420.60 249.98 420.51 245.04 C 420.55 193.01 420.48 140.98 420.54 88.95 C 420.66 82.39 419.48 75.62 416.27 69.84 C 412.63 63.80 405.36 61.73 398.83 60.67 C 389.71 60.12 380.57 60.75 371.45 60.37 C 362.49 56.62 355.28 65.61 346.69 66.32 C 356.09 60.15 367.24 56.01 378.60 56.45 Z" />
</g>
<g id="#9592f6f6">
<path fill="#9592f6" opacity="0.96" d=" M 108.66 59.90 C 115.46 58.71 122.20 60.67 129.01 60.52 C 132.29 60.56 135.41 61.74 138.50 62.74 C 148.91 66.23 157.23 74.54 168.28 76.34 C 173.54 76.66 178.72 77.82 184.02 77.44 C 229.69 77.38 275.37 77.40 321.04 77.44 C 324.12 77.48 327.12 76.63 330.19 76.48 C 337.49 75.77 343.94 71.94 350.13 68.28 C 356.63 64.32 363.83 61.21 371.45 60.37 C 380.57 60.75 389.71 60.12 398.83 60.67 C 405.36 61.73 412.63 63.80 416.27 69.84 C 419.48 75.62 420.66 82.39 420.54 88.95 C 420.48 140.98 420.55 193.01 420.51 245.04 C 420.60 249.98 419.66 254.86 419.04 259.74 C 414.83 279.55 404.34 297.32 393.00 313.84 C 381.40 330.34 368.29 345.76 353.95 359.93 C 330.62 383.83 305.14 405.56 278.42 425.57 C 272.38 430.10 266.37 434.89 259.32 437.75 C 256.38 439.02 253.10 438.63 249.99 438.78 C 246.88 438.63 243.62 439.02 240.69 437.75 C 232.51 434.43 225.75 428.58 218.70 423.42 C 199.61 408.97 181.18 393.63 163.71 377.26 C 138.40 353.28 114.17 327.54 96.50 297.27 C 87.69 282.22 80.43 265.65 79.52 248.03 C 79.43 194.35 79.51 140.67 79.47 86.99 C 79.27 78.77 81.98 70.17 88.29 64.62 C 90.80 63.32 93.38 62.14 96.10 61.34 C 100.14 59.91 104.53 60.91 108.66 59.90 M 96.23 64.87 C 88.26 65.52 83.02 73.37 83.50 80.98 C 83.44 137.85 83.41 194.74 83.51 251.61 C 84.76 266.57 91.13 280.53 98.36 293.49 C 116.04 324.33 140.51 350.55 166.19 374.85 C 184.60 391.89 203.92 407.96 224.02 423.00 C 229.85 427.30 235.60 431.84 242.15 435.02 C 245.84 436.93 250.08 436.54 254.09 436.33 C 260.13 434.69 265.19 430.78 270.25 427.25 C 294.67 409.27 318.13 389.95 340.00 368.95 C 361.10 348.53 381.01 326.62 396.73 301.72 C 406.02 286.68 414.47 270.39 416.45 252.59 C 416.67 196.40 416.48 140.22 416.54 84.03 C 416.64 78.78 416.27 72.68 412.06 68.93 C 409.11 65.50 404.30 64.70 400.02 64.50 C 389.72 64.42 379.43 64.33 369.14 64.61 C 357.07 65.87 348.81 76.00 337.95 80.25 C 334.98 80.66 332.08 81.58 329.05 81.41 C 278.02 81.50 226.98 81.44 175.94 81.44 C 169.25 81.55 162.04 81.39 156.34 77.42 C 147.64 72.44 139.62 64.58 129.00 64.52 C 118.09 64.59 107.11 63.98 96.23 64.87 Z" />
</g>
<g id="#cac7ffff">
<path fill="#cac7ff" opacity="1.00" d=" M 96.23 64.87 C 107.11 63.98 118.09 64.59 129.00 64.52 C 139.62 64.58 147.64 72.44 156.34 77.42 C 162.04 81.39 169.25 81.55 175.94 81.44 C 226.98 81.44 278.02 81.50 329.05 81.41 C 332.08 81.58 334.98 80.66 337.95 80.25 C 348.81 76.00 357.07 65.87 369.14 64.61 C 379.43 64.33 389.72 64.42 400.02 64.50 C 404.30 64.70 409.11 65.50 412.06 68.93 C 416.27 72.68 416.64 78.78 416.54 84.03 C 416.48 140.22 416.67 196.40 416.45 252.59 C 414.47 270.39 406.02 286.68 396.73 301.72 C 381.01 326.62 361.10 348.53 340.00 368.95 C 318.13 389.95 294.67 409.27 270.25 427.25 C 265.19 430.78 260.13 434.69 254.09 436.33 C 250.08 436.54 245.84 436.93 242.15 435.02 C 235.60 431.84 229.85 427.30 224.02 423.00 C 203.92 407.96 184.60 391.89 166.19 374.85 C 140.51 350.55 116.04 324.33 98.36 293.49 C 91.13 280.53 84.76 266.57 83.51 251.61 C 83.41 194.74 83.44 137.85 83.50 80.98 C 83.02 73.37 88.26 65.52 96.23 64.87 M 93.35 68.44 C 90.84 68.61 88.96 70.80 87.77 72.83 C 86.17 79.79 86.73 86.95 86.65 94.02 C 86.77 99.35 86.35 104.73 87.19 110.02 C 87.97 115.36 86.07 120.64 86.82 125.97 C 87.53 130.62 87.58 135.37 86.92 140.02 C 86.39 143.00 87.54 145.99 86.91 148.97 C 85.71 158.33 88.48 167.69 86.84 177.02 C 85.74 185.70 88.31 194.37 86.75 203.00 C 85.92 209.69 88.16 216.35 86.77 222.99 C 87.17 229.31 87.89 235.71 86.80 242.03 C 85.86 257.09 91.11 271.69 97.95 284.86 C 112.43 312.74 133.28 336.63 155.11 358.95 C 182.05 385.27 211.04 409.52 241.85 431.21 C 245.26 434.13 249.90 433.64 254.06 433.35 C 258.40 431.62 261.90 428.39 265.73 425.80 C 287.01 410.33 307.41 393.65 326.94 376.02 C 335.86 367.21 345.52 359.14 353.72 349.61 C 363.14 339.96 371.93 329.71 380.10 318.99 C 391.44 303.97 401.84 287.97 408.52 270.30 C 411.94 261.30 413.74 251.63 413.22 242.00 C 412.17 236.02 412.75 229.96 413.32 223.98 C 412.22 215.36 412.85 206.66 412.65 198.00 C 412.46 193.00 413.96 188.04 413.08 183.05 C 411.78 176.05 413.64 169.04 413.36 162.01 C 413.34 157.34 412.02 152.68 413.05 148.02 C 413.99 143.66 412.06 139.31 412.90 134.94 C 413.55 130.99 413.48 126.95 412.85 123.00 C 412.14 117.97 413.71 113.00 413.34 107.96 C 412.96 96.12 414.32 84.15 412.20 72.43 C 411.13 70.90 409.74 69.56 408.09 68.68 C 398.80 67.35 389.35 67.28 380.03 68.33 C 373.39 69.01 365.71 66.43 360.06 71.05 C 353.44 75.38 347.41 80.66 340.41 84.36 C 335.30 84.90 330.12 84.46 325.03 85.28 C 315.02 85.14 304.96 85.89 294.99 84.75 C 288.34 85.47 281.58 85.73 274.93 84.77 C 271.94 84.42 268.98 85.67 266.00 85.02 C 263.01 84.31 260.02 85.26 257.03 85.21 C 250.06 84.35 242.98 84.42 236.02 85.29 C 232.66 85.46 229.36 84.27 226.00 84.80 C 223.04 85.23 220.03 85.59 217.04 85.12 C 212.04 84.12 207.00 86.18 201.98 85.01 C 196.64 83.77 191.27 86.16 185.94 84.90 C 180.97 83.89 176.00 85.98 171.05 84.92 C 167.04 84.19 162.80 85.29 158.91 84.06 C 151.17 79.67 144.48 73.60 136.77 69.16 C 131.39 67.37 125.58 67.68 119.98 67.68 C 111.08 67.27 102.24 68.26 93.35 68.44 Z" />
</g>
<g id="#edebffff">
<path fill="#edebff" opacity="1.00" d=" M 93.35 68.44 C 102.24 68.26 111.08 67.27 119.98 67.68 C 125.58 67.68 131.39 67.37 136.77 69.16 C 144.48 73.60 151.17 79.67 158.91 84.06 C 162.80 85.29 167.04 84.19 171.05 84.92 C 176.00 85.98 180.97 83.89 185.94 84.90 C 191.27 86.16 196.64 83.77 201.98 85.01 C 207.00 86.18 212.04 84.12 217.04 85.12 C 220.03 85.59 223.04 85.23 226.00 84.80 C 229.36 84.27 232.66 85.46 236.02 85.29 C 242.98 84.42 250.06 84.35 257.03 85.21 C 260.02 85.26 263.01 84.31 266.00 85.02 C 268.98 85.67 271.94 84.42 274.93 84.77 C 281.58 85.73 288.34 85.47 294.99 84.75 C 304.96 85.89 315.02 85.14 325.03 85.28 C 330.12 84.46 335.30 84.90 340.41 84.36 C 347.41 80.66 353.44 75.38 360.06 71.05 C 365.71 66.43 373.39 69.01 380.03 68.33 C 389.35 67.28 398.80 67.35 408.09 68.68 C 409.74 69.56 411.13 70.90 412.20 72.43 C 414.32 84.15 412.96 96.12 413.34 107.96 C 413.71 113.00 412.14 117.97 412.85 123.00 C 413.48 126.95 413.55 130.99 412.90 134.94 C 412.06 139.31 413.99 143.66 413.05 148.02 C 412.02 152.68 413.34 157.34 413.36 162.01 C 413.64 169.04 411.78 176.05 413.08 183.05 C 413.96 188.04 412.46 193.00 412.65 198.00 C 412.85 206.66 412.22 215.36 413.32 223.98 C 412.75 229.96 412.17 236.02 413.22 242.00 C 413.74 251.63 411.94 261.30 408.52 270.30 C 401.84 287.97 391.44 303.97 380.10 318.99 C 371.93 329.71 363.14 339.96 353.72 349.61 C 345.52 359.14 335.86 367.21 326.94 376.02 C 307.41 393.65 287.01 410.33 265.73 425.80 C 261.90 428.39 258.40 431.62 254.06 433.35 C 249.90 433.64 245.26 434.13 241.85 431.21 C 211.04 409.52 182.05 385.27 155.11 358.95 C 133.28 336.63 112.43 312.74 97.95 284.86 C 91.11 271.69 85.86 257.09 86.80 242.03 C 87.89 235.71 87.17 229.31 86.77 222.99 C 88.16 216.35 85.92 209.69 86.75 203.00 C 88.31 194.37 85.74 185.70 86.84 177.02 C 88.48 167.69 85.71 158.33 86.91 148.97 C 87.54 145.99 86.39 143.00 86.92 140.02 C 87.58 135.37 87.53 130.62 86.82 125.97 C 86.07 120.64 87.97 115.36 87.19 110.02 C 86.35 104.73 86.77 99.35 86.65 94.02 C 86.73 86.95 86.17 79.79 87.77 72.83 C 88.96 70.80 90.84 68.61 93.35 68.44 M 104.46 85.44 C 104.68 93.32 103.37 101.12 103.66 109.00 C 103.75 116.00 103.43 123.01 103.98 130.00 C 103.61 136.31 103.33 142.68 104.16 148.97 C 103.26 160.28 103.53 171.68 104.35 182.98 C 103.20 194.96 103.82 207.01 103.65 219.03 C 103.51 222.37 104.60 225.67 103.99 228.99 C 103.01 236.44 104.22 243.92 104.86 251.33 C 109.11 268.94 118.56 284.72 128.70 299.53 C 139.83 315.71 153.08 330.26 166.58 344.46 C 190.53 368.02 216.33 389.67 243.43 409.52 C 245.77 410.93 247.73 413.87 250.73 413.52 C 253.30 412.32 255.40 410.31 257.69 408.68 C 280.39 391.97 302.27 374.10 322.69 354.66 C 331.86 346.88 339.53 337.58 347.91 328.99 C 364.36 310.18 379.80 290.02 389.90 267.01 C 392.70 259.99 395.77 252.75 395.63 245.05 C 395.79 240.04 396.95 235.02 395.97 230.01 C 395.23 226.33 396.39 222.66 396.34 218.97 C 396.29 189.31 396.39 159.64 396.30 129.98 C 394.85 122.65 397.03 115.32 396.23 107.95 C 395.14 100.49 395.97 92.93 395.52 85.43 C 390.67 85.14 385.78 85.73 380.97 84.96 C 376.72 84.23 372.21 85.28 368.72 87.78 C 363.15 91.50 357.86 95.60 352.30 99.34 C 350.64 100.35 348.92 101.56 346.89 101.57 C 335.28 101.88 323.65 101.44 312.04 101.77 C 306.70 102.92 301.38 101.30 296.02 101.65 C 281.71 101.91 267.35 101.13 253.08 102.22 C 247.11 101.36 241.06 101.74 235.05 101.67 C 230.04 101.74 225.01 101.38 220.03 102.08 C 200.07 101.22 180.00 101.86 159.99 101.67 C 156.29 101.47 152.16 102.38 148.92 100.10 C 142.68 96.11 136.91 91.43 130.70 87.39 C 126.69 84.74 121.57 84.25 116.91 85.01 C 112.79 85.67 108.61 85.17 104.46 85.44 Z" />
</g>
<g id="#cbc8ffff">
<path fill="#cbc8ff" opacity="1.00" d=" M 104.46 85.44 C 108.61 85.17 112.79 85.67 116.91 85.01 C 121.57 84.25 126.69 84.74 130.70 87.39 C 136.91 91.43 142.68 96.11 148.92 100.10 C 152.16 102.38 156.29 101.47 159.99 101.67 C 180.00 101.86 200.07 101.22 220.03 102.08 C 225.01 101.38 230.04 101.74 235.05 101.67 C 241.06 101.74 247.11 101.36 253.08 102.22 C 267.35 101.13 281.71 101.91 296.02 101.65 C 301.38 101.30 306.70 102.92 312.04 101.77 C 323.65 101.44 335.28 101.88 346.89 101.57 C 348.92 101.56 350.64 100.35 352.30 99.34 C 357.86 95.60 363.15 91.50 368.72 87.78 C 372.21 85.28 376.72 84.23 380.97 84.96 C 385.78 85.73 390.67 85.14 395.52 85.43 C 395.97 92.93 395.14 100.49 396.23 107.95 C 397.03 115.32 394.85 122.65 396.30 129.98 C 396.39 159.64 396.29 189.31 396.34 218.97 C 396.39 222.66 395.23 226.33 395.97 230.01 C 396.95 235.02 395.79 240.04 395.63 245.05 C 395.77 252.75 392.70 259.99 389.90 267.01 C 379.80 290.02 364.36 310.18 347.91 328.99 C 339.53 337.58 331.86 346.88 322.69 354.66 C 302.27 374.10 280.39 391.97 257.69 408.68 C 255.40 410.31 253.30 412.32 250.73 413.52 C 247.73 413.87 245.77 410.93 243.43 409.52 C 216.33 389.67 190.53 368.02 166.58 344.46 C 153.08 330.26 139.83 315.71 128.70 299.53 C 118.56 284.72 109.11 268.94 104.86 251.33 C 104.22 243.92 103.01 236.44 103.99 228.99 C 104.60 225.67 103.51 222.37 103.65 219.03 C 103.82 207.01 103.20 194.96 104.35 182.98 C 103.53 171.68 103.26 160.28 104.16 148.97 C 103.33 142.68 103.61 136.31 103.98 130.00 C 103.43 123.01 103.75 116.00 103.66 109.00 C 103.37 101.12 104.68 93.32 104.46 85.44 M 118.95 89.03 C 115.57 89.98 112.02 89.39 108.56 89.56 C 109.18 95.47 107.08 101.11 107.49 107.01 C 107.52 152.20 107.37 197.40 107.57 242.59 C 108.98 257.69 115.88 271.59 123.46 284.50 C 142.61 316.01 168.76 342.50 196.14 366.88 C 213.00 381.37 230.07 395.72 248.62 408.03 C 249.58 408.82 250.96 408.45 251.82 407.70 C 273.70 393.07 293.75 375.89 313.35 358.37 C 335.85 337.39 357.32 314.91 373.84 288.81 C 382.58 274.81 390.64 259.64 392.42 242.99 C 392.62 196.65 392.51 150.31 392.48 103.97 C 392.83 99.08 390.86 94.47 391.41 89.56 C 387.79 89.40 384.05 90.01 380.53 88.88 C 378.87 88.46 377.11 88.43 375.44 88.74 C 367.53 92.84 360.61 98.62 352.68 102.68 C 346.95 105.67 340.33 105.58 334.05 105.48 C 275.70 105.46 217.36 105.54 159.02 105.44 C 145.98 105.48 136.66 95.05 125.76 89.48 C 123.72 88.22 121.17 88.39 118.95 89.03 Z" />
</g>
<g id="#9a97fafa">
<path fill="#9a97fa" opacity="0.98" d=" M 118.95 89.03 C 121.17 88.39 123.72 88.22 125.76 89.48 C 136.66 95.05 145.98 105.48 159.02 105.44 C 217.36 105.54 275.70 105.46 334.05 105.48 C 340.33 105.58 346.95 105.67 352.68 102.68 C 360.61 98.62 367.53 92.84 375.44 88.74 C 377.11 88.43 378.87 88.46 380.53 88.88 C 384.05 90.01 387.79 89.40 391.41 89.56 C 390.86 94.47 392.83 99.08 392.48 103.97 C 392.51 150.31 392.62 196.65 392.42 242.99 C 390.64 259.64 382.58 274.81 373.84 288.81 C 357.32 314.91 335.85 337.39 313.35 358.37 C 293.75 375.89 273.70 393.07 251.82 407.70 C 250.96 408.45 249.58 408.82 248.62 408.03 C 230.07 395.72 213.00 381.37 196.14 366.88 C 168.76 342.50 142.61 316.01 123.46 284.50 C 115.88 271.59 108.98 257.69 107.57 242.59 C 107.37 197.40 107.52 152.20 107.49 107.01 C 107.08 101.11 109.18 95.47 108.56 89.56 C 112.02 89.39 115.57 89.98 118.95 89.03 M 118.64 93.66 C 112.97 95.71 110.28 102.36 110.58 108.02 C 110.57 149.00 110.59 189.98 110.59 230.96 C 109.97 248.28 116.18 265.10 124.84 279.86 C 143.61 312.29 170.35 339.12 198.01 364.00 C 210.77 374.99 223.63 385.90 237.23 395.86 C 241.85 399.07 247.06 402.88 253.04 401.38 C 260.09 398.59 265.87 393.49 271.87 388.98 C 284.76 378.93 297.17 368.27 309.38 357.41 C 330.61 337.50 351.29 316.63 367.40 292.25 C 376.07 279.33 383.96 265.49 387.43 250.19 C 388.70 245.54 388.54 240.68 389.35 235.95 C 389.51 195.29 389.34 154.63 389.45 113.97 C 389.34 110.54 389.84 106.94 388.31 103.74 C 387.72 98.94 384.08 94.21 379.03 93.51 C 369.48 95.33 362.02 102.06 353.40 106.10 C 348.26 106.82 343.30 108.79 338.05 108.54 C 280.05 108.63 222.06 108.59 164.06 108.56 C 159.21 108.76 154.39 107.93 149.75 106.54 C 141.11 103.90 134.30 97.49 125.87 94.34 C 123.62 93.27 121.04 93.35 118.64 93.66 Z" />
</g>
<g id="#7574e9e9">
<path fill="#7574e9" opacity="0.91" d=" M 118.64 93.66 C 121.04 93.35 123.62 93.27 125.87 94.34 C 134.30 97.49 141.11 103.90 149.75 106.54 C 154.39 107.93 159.21 108.76 164.06 108.56 C 222.06 108.59 280.05 108.63 338.05 108.54 C 343.30 108.79 348.26 106.82 353.40 106.10 C 357.16 105.59 360.64 104.08 364.02 102.43 C 363.32 103.28 362.63 104.12 361.94 104.96 C 352.85 110.21 342.40 112.43 331.97 112.42 C 277.30 112.46 222.63 112.47 167.95 112.42 C 160.33 112.19 152.55 111.26 145.51 108.17 C 142.33 106.81 139.16 105.39 136.03 103.91 C 131.08 101.86 126.43 97.65 120.75 98.54 C 116.74 99.68 115.20 104.20 114.64 107.90 C 114.39 112.38 114.57 116.88 114.54 121.36 C 114.52 158.24 114.53 195.12 114.53 232.00 C 114.93 241.80 116.18 251.69 119.88 260.86 C 128.58 283.33 143.55 302.65 159.18 320.73 C 162.64 324.94 166.75 328.58 170.26 332.75 C 176.71 340.31 184.56 346.45 191.52 353.50 C 204.99 365.69 218.90 377.42 233.33 388.47 C 238.89 392.39 244.69 398.19 252.01 397.39 C 258.58 395.07 264.18 390.68 269.37 386.15 C 303.23 359.42 335.84 330.23 361.02 294.95 C 371.22 280.40 380.33 264.54 383.92 246.95 C 385.01 242.70 384.17 238.26 384.84 233.96 C 385.79 229.38 385.34 224.68 385.43 220.05 C 385.33 189.70 385.56 159.35 385.33 129.01 C 384.35 124.84 384.64 120.63 385.32 116.44 C 385.36 115.88 385.45 114.74 385.49 114.17 C 385.82 115.93 386.23 117.67 386.68 119.41 C 387.71 114.24 387.38 108.92 388.31 103.74 C 389.84 106.94 389.34 110.54 389.45 113.97 C 389.34 154.63 389.51 195.29 389.35 235.95 C 388.54 240.68 388.70 245.54 387.43 250.19 C 383.96 265.49 376.07 279.33 367.40 292.25 C 351.29 316.63 330.61 337.50 309.38 357.41 C 297.17 368.27 284.76 378.93 271.87 388.98 C 265.87 393.49 260.09 398.59 253.04 401.38 C 247.06 402.88 241.85 399.07 237.23 395.86 C 223.63 385.90 210.77 374.99 198.01 364.00 C 170.35 339.12 143.61 312.29 124.84 279.86 C 116.18 265.10 109.97 248.28 110.59 230.96 C 110.59 189.98 110.57 149.00 110.58 108.02 C 110.28 102.36 112.97 95.71 118.64 93.66 Z" />
</g>
<g id="#6866f0f0">
<path fill="#6866f0" opacity="0.94" d=" M 353.40 106.10 C 362.02 102.06 369.48 95.33 379.03 93.51 C 384.08 94.21 387.72 98.94 388.31 103.74 C 387.38 108.92 387.71 114.24 386.68 119.41 C 386.23 117.67 385.82 115.93 385.49 114.17 C 385.45 114.74 385.36 115.88 385.32 116.44 L 384.76 117.76 C 384.18 112.10 385.70 105.25 381.03 100.91 C 379.58 99.09 377.14 99.21 375.09 99.64 C 371.23 100.90 367.69 102.92 363.93 104.41 C 363.43 104.55 362.43 104.83 361.94 104.96 C 362.63 104.12 363.32 103.28 364.02 102.43 C 360.64 104.08 357.16 105.59 353.40 106.10 Z" />
</g>
<g id="#4746dddd">
<path fill="#4746dd" opacity="0.87" d=" M 120.75 98.54 C 126.43 97.65 131.08 101.86 136.03 103.91 C 136.70 104.74 137.46 105.53 137.98 106.47 C 137.74 106.98 137.27 107.99 137.03 108.49 C 132.53 106.39 127.87 104.56 122.99 103.61 C 118.53 107.59 119.00 114.37 118.50 119.84 C 118.15 120.61 117.77 121.37 117.35 122.11 C 116.39 121.95 115.47 121.63 114.54 121.36 C 114.57 116.88 114.39 112.38 114.64 107.90 C 115.20 104.20 116.74 99.68 120.75 98.54 Z" />
</g>
<g id="#4443dada">
<path fill="#4443da" opacity="0.85" d=" M 363.93 104.41 C 367.69 102.92 371.23 100.90 375.09 99.64 C 377.14 99.21 379.58 99.09 381.03 100.91 C 385.70 105.25 384.18 112.10 384.76 117.76 C 384.11 119.44 383.44 121.11 382.72 122.76 C 382.18 121.44 381.71 120.09 381.27 118.74 C 380.22 114.04 380.81 108.90 378.22 104.62 C 372.70 103.69 367.74 106.93 362.80 108.84 C 360.69 107.51 363.28 105.81 363.93 104.41 Z" />
</g>
<g id="#2b2abdbd">
<path fill="#2b2abd" opacity="0.74" d=" M 118.50 119.84 C 119.00 114.37 118.53 107.59 122.99 103.61 C 127.87 104.56 132.53 106.39 137.03 108.49 C 137.20 108.58 137.53 108.76 137.70 108.85 C 138.31 109.93 138.86 111.03 139.36 112.17 C 138.75 112.11 137.53 111.98 136.92 111.92 C 132.98 110.51 129.05 108.83 124.85 108.45 C 121.99 112.87 122.30 118.30 122.28 123.33 C 121.10 123.86 119.82 123.67 118.59 123.54 C 118.57 122.62 118.52 120.76 118.50 119.84 Z" />
</g>
<g id="#5653d3d3">
<path fill="#5653d3" opacity="0.83" d=" M 136.03 103.91 C 139.16 105.39 142.33 106.81 145.51 108.17 C 152.55 111.26 160.33 112.19 167.95 112.42 C 222.63 112.47 277.30 112.46 331.97 112.42 C 342.40 112.43 352.85 110.21 361.94 104.96 C 362.43 104.83 363.43 104.55 363.93 104.41 C 363.28 105.81 360.69 107.51 362.80 108.84 C 362.52 108.97 361.97 109.22 361.69 109.34 C 352.64 113.13 342.95 115.78 333.08 115.55 C 278.04 115.59 223.00 115.59 167.96 115.55 C 157.52 115.88 147.14 113.21 137.70 108.85 C 137.53 108.76 137.20 108.58 137.03 108.49 C 137.27 107.99 137.74 106.98 137.98 106.47 C 137.46 105.53 136.70 104.74 136.03 103.91 Z" />
</g>
<g id="#2828b9b9">
<path fill="#2828b9" opacity="0.73" d=" M 362.80 108.84 C 367.74 106.93 372.70 103.69 378.22 104.62 C 380.81 108.90 380.22 114.04 381.27 118.74 C 381.00 120.01 380.76 121.29 380.54 122.57 C 379.90 123.95 379.21 125.30 378.49 126.63 C 378.15 125.30 377.83 123.96 377.56 122.62 C 376.89 118.98 376.49 115.25 375.20 111.75 C 374.69 111.42 373.67 110.75 373.16 110.42 C 369.57 111.11 366.07 112.20 362.57 113.27 C 362.28 111.95 361.97 110.65 361.69 109.34 C 361.97 109.22 362.52 108.97 362.80 108.84 Z" />
</g>
<g id="#18179e9e">
<path fill="#18179e" opacity="0.62" d=" M 122.28 123.33 C 122.30 118.30 121.99 112.87 124.85 108.45 C 129.05 108.83 132.98 110.51 136.92 111.92 C 138.51 112.83 140.06 113.82 141.60 114.81 C 141.09 115.06 140.09 115.55 139.58 115.79 C 135.22 114.96 130.81 113.92 126.35 114.49 C 124.31 119.16 123.62 124.38 123.67 129.44 L 123.19 129.41 C 122.78 127.39 122.48 125.37 122.28 123.33 Z" />
</g>
<g id="#3837b1b1">
<path fill="#3837b1" opacity="0.69" d=" M 137.70 108.85 C 147.14 113.21 157.52 115.88 167.96 115.55 C 223.00 115.59 278.04 115.59 333.08 115.55 C 342.95 115.78 352.64 113.13 361.69 109.34 C 361.97 110.65 362.28 111.95 362.57 113.27 C 361.24 113.86 359.93 114.49 358.63 115.11 C 348.27 117.82 337.68 119.72 326.94 119.52 C 273.96 119.53 220.98 119.59 167.99 119.48 C 159.07 118.83 150.07 117.91 141.60 114.81 C 140.06 113.82 138.51 112.83 136.92 111.92 C 137.53 111.98 138.75 112.11 139.36 112.17 C 138.86 111.03 138.31 109.93 137.70 108.85 Z" />
</g>
<g id="#0f0f8888">
<path fill="#0f0f88" opacity="0.53" d=" M 362.57 113.27 C 366.07 112.20 369.57 111.11 373.16 110.42 C 373.67 110.75 374.69 111.42 375.20 111.75 C 376.49 115.25 376.89 118.98 377.56 122.62 C 377.34 124.96 376.93 127.28 376.69 129.62 C 376.45 131.47 376.14 133.31 375.77 135.14 C 375.35 129.93 375.05 124.33 372.06 119.86 C 369.10 117.07 364.79 117.33 361.10 118.08 C 360.14 118.03 359.19 117.95 358.24 117.85 C 359.76 117.01 361.32 116.25 362.85 115.43 C 361.44 115.31 360.03 115.20 358.63 115.11 C 359.93 114.49 361.24 113.86 362.57 113.27 Z" />
</g>
<g id="#0c0b7e7e">
<path fill="#0c0b7e" opacity="0.49" d=" M 126.35 114.49 C 130.81 113.92 135.22 114.96 139.58 115.79 C 140.11 116.32 141.18 117.39 141.71 117.92 C 140.86 118.24 139.98 118.49 139.10 118.72 C 135.62 118.71 131.27 117.76 128.61 120.64 C 126.80 123.33 126.38 126.65 125.03 129.55 C 124.69 129.52 124.01 129.47 123.67 129.44 C 123.62 124.38 124.31 119.16 126.35 114.49 Z" />
</g>
<g id="#1c1c7d7d">
<path fill="#1c1c7d" opacity="0.49" d=" M 139.58 115.79 C 140.09 115.55 141.09 115.06 141.60 114.81 C 150.07 117.91 159.07 118.83 167.99 119.48 C 220.98 119.59 273.96 119.53 326.94 119.52 C 337.68 119.72 348.27 117.82 358.63 115.11 C 360.03 115.20 361.44 115.31 362.85 115.43 C 361.32 116.25 359.76 117.01 358.24 117.85 C 359.19 117.95 360.14 118.03 361.10 118.08 C 358.88 118.79 356.74 119.69 354.59 120.56 C 352.15 121.47 349.54 121.47 346.99 121.73 C 340.08 123.20 332.93 121.99 326.00 123.37 C 279.32 123.48 232.64 123.39 185.96 123.42 C 179.97 123.30 173.94 123.80 168.03 122.67 C 162.16 122.50 156.26 122.68 150.49 121.44 C 146.86 119.93 143.00 119.11 139.10 118.72 C 139.98 118.49 140.86 118.24 141.71 117.92 C 141.18 117.39 140.11 116.32 139.58 115.79 Z" />
</g>
<g id="#4a49cccc">
<path fill="#4a49cc" opacity="0.80" d=" M 384.76 117.76 L 385.32 116.44 C 384.64 120.63 384.35 124.84 385.33 129.01 C 385.56 159.35 385.33 189.70 385.43 220.05 C 385.34 224.68 385.79 229.38 384.84 233.96 C 384.17 238.26 385.01 242.70 383.92 246.95 C 380.33 264.54 371.22 280.40 361.02 294.95 C 335.84 330.23 303.23 359.42 269.37 386.15 C 267.83 385.78 266.30 385.41 264.77 385.05 C 268.74 381.25 273.34 378.21 277.58 374.72 C 305.24 352.20 331.72 327.80 353.22 299.19 C 361.96 287.54 369.89 275.13 375.36 261.58 C 378.62 252.79 380.80 243.45 380.58 234.02 C 380.43 229.99 381.54 226.04 381.38 222.01 C 381.41 196.67 381.44 171.34 381.37 146.00 C 380.34 138.24 380.51 130.39 380.54 122.57 C 380.76 121.29 381.00 120.01 381.27 118.74 C 381.71 120.09 382.18 121.44 382.72 122.76 C 383.44 121.11 384.11 119.44 384.76 117.76 Z" />
</g>
<g id="#14136f70">
<path fill="#14136f" opacity="0.44" d=" M 361.10 118.08 C 364.79 117.33 369.10 117.07 372.06 119.86 C 375.05 124.33 375.35 129.93 375.77 135.14 C 376.14 133.31 376.45 131.47 376.69 129.62 C 377.05 131.74 377.43 133.87 377.39 136.03 C 377.53 167.69 377.46 199.35 377.42 231.02 C 377.53 235.26 376.42 239.39 376.38 243.63 C 373.82 260.99 364.31 276.20 354.80 290.57 C 339.32 312.44 320.49 331.67 300.89 349.82 C 288.80 360.30 276.98 371.29 263.50 380.00 C 263.08 380.25 262.23 380.74 261.81 380.99 C 261.37 380.14 260.78 379.37 260.41 378.50 L 259.93 376.97 C 270.89 370.64 280.23 362.00 289.87 353.89 C 293.60 350.29 297.82 347.23 301.43 343.49 C 307.30 337.35 314.25 332.33 319.78 325.86 C 322.79 322.20 326.08 318.79 329.43 315.45 C 344.16 298.83 358.09 281.06 367.22 260.66 C 369.93 253.63 371.82 246.29 373.22 238.89 C 374.10 229.97 372.82 220.92 374.31 212.03 C 374.58 197.35 374.33 182.65 374.44 167.96 C 374.66 163.95 373.01 160.00 374.00 156.02 C 375.17 151.12 373.23 146.26 373.51 141.33 C 373.70 135.01 372.23 127.99 367.20 123.73 C 363.69 120.67 358.74 121.83 354.59 120.56 C 356.74 119.69 358.88 118.79 361.10 118.08 Z" />
</g>
<g id="#12126a6b">
<path fill="#12126a" opacity="0.42" d=" M 128.61 120.64 C 131.27 117.76 135.62 118.71 139.10 118.72 C 143.00 119.11 146.86 119.93 150.49 121.44 C 144.47 122.03 137.44 120.02 132.43 124.39 C 127.46 129.10 126.66 136.50 126.50 142.99 C 126.36 171.99 126.41 200.99 126.51 229.99 C 126.35 239.72 128.89 249.33 132.80 258.17 C 136.47 266.25 140.13 274.37 145.05 281.79 C 151.35 291.36 158.31 300.51 165.83 309.17 C 171.33 315.94 177.77 321.86 183.55 328.39 C 195.96 340.72 208.88 352.55 222.43 363.64 C 227.91 368.66 233.79 373.25 240.24 376.97 L 239.65 378.52 C 239.16 379.25 238.66 380.00 238.23 380.77 C 237.15 380.15 236.02 379.59 234.90 379.07 C 210.88 361.43 189.04 341.01 168.61 319.36 C 158.07 307.42 147.87 295.10 139.50 281.51 C 131.94 269.36 125.17 256.20 123.52 241.80 C 123.22 236.87 123.83 231.87 122.69 227.02 C 122.43 200.03 122.61 173.02 122.58 146.03 C 122.23 140.45 124.26 134.98 123.19 129.41 L 123.67 129.44 C 124.01 129.47 124.69 129.52 125.03 129.55 C 126.38 126.65 126.80 123.33 128.61 120.64 Z" />
</g>
<g id="#4f4ecfcf">
<path fill="#4f4ecf" opacity="0.81" d=" M 117.35 122.11 C 117.77 121.37 118.15 120.61 118.50 119.84 C 118.52 120.76 118.57 122.62 118.59 123.54 C 118.53 159.69 118.48 195.85 118.58 232.00 C 118.75 236.01 119.66 239.94 119.71 243.96 C 121.63 255.91 126.14 267.35 132.29 277.73 C 142.77 295.92 156.16 312.25 170.48 327.51 C 191.06 348.99 213.39 368.76 237.28 386.49 C 235.96 387.14 234.64 387.80 233.33 388.47 C 218.90 377.42 204.99 365.69 191.52 353.50 C 184.56 346.45 176.71 340.31 170.26 332.75 C 166.75 328.58 162.64 324.94 159.18 320.73 C 143.55 302.65 128.58 283.33 119.88 260.86 C 116.18 251.69 114.93 241.80 114.53 232.00 C 114.53 195.12 114.52 158.24 114.54 121.36 C 115.47 121.63 116.39 121.95 117.35 122.11 Z" />
</g>
<g id="#05054747">
<path fill="#050547" opacity="0.28" d=" M 346.99 121.73 C 349.54 121.47 352.15 121.47 354.59 120.56 C 358.74 121.83 363.69 120.67 367.20 123.73 C 372.23 127.99 373.70 135.01 373.51 141.33 C 373.23 146.26 375.17 151.12 374.00 156.02 C 373.01 160.00 374.66 163.95 374.44 167.96 C 374.33 182.65 374.58 197.35 374.31 212.03 C 372.82 220.92 374.10 229.97 373.22 238.89 C 371.82 246.29 369.93 253.63 367.22 260.66 C 358.09 281.06 344.16 298.83 329.43 315.45 C 326.08 318.79 322.79 322.20 319.78 325.86 C 314.25 332.33 307.30 337.35 301.43 343.49 C 297.82 347.23 293.60 350.29 289.87 353.89 C 280.23 362.00 270.89 370.64 259.93 376.97 C 256.56 377.66 253.46 379.43 250.03 379.82 C 246.63 379.45 243.56 377.73 240.24 376.97 C 233.79 373.25 227.91 368.66 222.43 363.64 C 208.88 352.55 195.96 340.72 183.55 328.39 C 177.77 321.86 171.33 315.94 165.83 309.17 C 158.31 300.51 151.35 291.36 145.05 281.79 C 140.13 274.37 136.47 266.25 132.80 258.17 C 128.89 249.33 126.35 239.72 126.51 229.99 C 126.41 200.99 126.36 171.99 126.50 142.99 C 126.66 136.50 127.46 129.10 132.43 124.39 C 137.44 120.02 144.47 122.03 150.49 121.44 C 156.26 122.68 162.16 122.50 168.03 122.67 C 173.94 123.80 179.97 123.30 185.96 123.42 C 232.64 123.39 279.32 123.48 326.00 123.37 C 332.93 121.99 340.08 123.20 346.99 121.73 M 145.30 127.31 C 141.23 128.25 137.47 130.75 135.35 134.38 C 133.05 138.66 131.91 143.54 131.48 148.36 C 131.31 165.91 131.51 183.47 131.35 201.02 C 130.55 205.65 130.43 210.33 131.34 214.96 C 131.33 234.15 133.92 254.15 143.95 270.89 C 149.65 283.21 158.41 293.70 166.76 304.26 C 175.41 316.13 186.24 326.12 196.56 336.50 C 207.33 345.99 217.72 355.95 229.20 364.60 C 233.92 367.77 238.91 370.78 244.46 372.21 C 247.89 372.65 251.39 372.57 254.83 372.32 C 261.18 371.06 266.68 367.35 271.86 363.64 C 283.28 355.29 293.29 345.26 303.95 336.00 C 309.77 330.14 315.68 324.36 321.44 318.44 C 328.03 310.45 335.75 303.35 341.31 294.55 C 343.24 291.45 345.39 288.50 347.54 285.56 C 351.31 280.41 354.14 274.67 357.20 269.09 C 364.17 256.53 367.03 242.17 368.41 228.00 C 369.00 217.67 367.83 207.26 369.28 196.98 C 369.31 194.31 368.55 191.69 368.58 189.01 C 368.51 175.22 368.72 161.41 368.48 147.62 C 367.64 140.87 365.90 133.09 359.61 129.31 C 352.06 124.88 342.99 126.75 334.79 127.67 C 326.28 129.32 317.55 127.81 309.02 129.31 C 300.36 129.42 291.66 129.79 283.03 128.88 C 275.06 129.68 266.96 129.76 259.00 128.81 C 251.03 129.66 242.93 129.80 234.97 128.87 C 221.35 129.91 207.62 129.29 193.96 129.35 C 186.36 128.13 178.67 128.77 171.02 128.41 C 162.50 127.59 153.81 125.22 145.30 127.31 Z" />
</g>
<g id="#2e2ea5a5">
<path fill="#2e2ea5" opacity="0.65" d=" M 118.59 123.54 C 119.82 123.67 121.10 123.86 122.28 123.33 C 122.48 125.37 122.78 127.39 123.19 129.41 C 124.26 134.98 122.23 140.45 122.58 146.03 C 122.61 173.02 122.43 200.03 122.69 227.02 C 123.83 231.87 123.22 236.87 123.52 241.80 C 125.17 256.20 131.94 269.36 139.50 281.51 C 147.87 295.10 158.07 307.42 168.61 319.36 C 189.04 341.01 210.88 361.43 234.90 379.07 C 236.99 383.96 242.17 386.26 246.75 388.24 C 253.35 390.25 259.35 385.25 264.31 381.57 C 264.11 381.18 263.70 380.39 263.50 380.00 C 276.98 371.29 288.80 360.30 300.89 349.82 C 320.49 331.67 339.32 312.44 354.80 290.57 C 354.46 293.47 354.06 296.38 353.22 299.19 C 331.72 327.80 305.24 352.20 277.58 374.72 C 273.34 378.21 268.74 381.25 264.77 385.05 C 259.64 388.11 254.57 393.11 248.18 392.38 C 244.25 391.04 240.77 388.70 237.28 386.49 C 213.39 368.76 191.06 348.99 170.48 327.51 C 156.16 312.25 142.77 295.92 132.29 277.73 C 126.14 267.35 121.63 255.91 119.71 243.96 C 119.66 239.94 118.75 236.01 118.58 232.00 C 118.48 195.85 118.53 159.69 118.59 123.54 Z" />
</g>
<g id="#2d2ca5a5">
<path fill="#2d2ca5" opacity="0.65" d=" M 377.56 122.62 C 377.83 123.96 378.15 125.30 378.49 126.63 C 379.21 125.30 379.90 123.95 380.54 122.57 C 380.51 130.39 380.34 138.24 381.37 146.00 C 381.44 171.34 381.41 196.67 381.38 222.01 C 381.54 226.04 380.43 229.99 380.58 234.02 C 380.80 243.45 378.62 252.79 375.36 261.58 C 369.89 275.13 361.96 287.54 353.22 299.19 C 354.06 296.38 354.46 293.47 354.80 290.57 C 364.31 276.20 373.82 260.99 376.38 243.63 C 376.42 239.39 377.53 235.26 377.42 231.02 C 377.46 199.35 377.53 167.69 377.39 136.03 C 377.43 133.87 377.05 131.74 376.69 129.62 C 376.93 127.28 377.34 124.96 377.56 122.62 Z" />
</g>
<g id="#00002c2c">
<path fill="#00002c" opacity="0.17" d=" M 145.30 127.31 C 153.81 125.22 162.50 127.59 171.02 128.41 C 178.67 128.77 186.36 128.13 193.96 129.35 C 207.62 129.29 221.35 129.91 234.97 128.87 C 242.93 129.80 251.03 129.66 259.00 128.81 C 266.96 129.76 275.06 129.68 283.03 128.88 C 291.66 129.79 300.36 129.42 309.02 129.31 C 317.55 127.81 326.28 129.32 334.79 127.67 C 342.99 126.75 352.06 124.88 359.61 129.31 C 365.90 133.09 367.64 140.87 368.48 147.62 C 368.72 161.41 368.51 175.22 368.58 189.01 C 368.55 191.69 369.31 194.31 369.28 196.98 C 367.83 207.26 369.00 217.67 368.41 228.00 C 367.03 242.17 364.17 256.53 357.20 269.09 C 354.14 274.67 351.31 280.41 347.54 285.56 C 345.39 288.50 343.24 291.45 341.31 294.55 C 335.75 303.35 328.03 310.45 321.44 318.44 C 315.68 324.36 309.77 330.14 303.95 336.00 C 293.29 345.26 283.28 355.29 271.86 363.64 C 266.68 367.35 261.18 371.06 254.83 372.32 C 251.39 372.57 247.89 372.65 244.46 372.21 C 238.91 370.78 233.92 367.77 229.20 364.60 C 217.72 355.95 207.33 345.99 196.56 336.50 C 186.24 326.12 175.41 316.13 166.76 304.26 C 158.41 293.70 149.65 283.21 143.95 270.89 C 133.92 254.15 131.33 234.15 131.34 214.96 C 130.43 210.33 130.55 205.65 131.35 201.02 C 131.51 183.47 131.31 165.91 131.48 148.36 C 131.91 143.54 133.05 138.66 135.35 134.38 C 137.47 130.75 141.23 128.25 145.30 127.31 M 153.38 133.51 C 144.90 133.59 138.50 141.92 138.48 149.98 C 138.41 174.65 138.45 199.31 138.46 223.98 C 138.68 245.06 146.21 265.63 158.30 282.77 C 170.34 303.02 188.01 318.92 204.46 335.48 C 212.66 342.60 220.47 350.21 229.20 356.70 C 235.04 360.77 241.63 364.89 249.03 364.50 C 260.11 365.45 269.46 358.10 277.46 351.41 C 288.56 341.92 299.42 332.16 309.47 321.55 C 318.19 313.22 326.30 304.28 333.63 294.70 C 337.62 289.84 340.50 284.23 344.13 279.12 C 347.55 274.29 349.95 268.87 352.59 263.60 C 359.30 249.44 361.89 233.58 361.56 218.00 C 361.54 195.66 361.57 173.32 361.55 150.98 C 361.80 144.48 358.15 137.86 352.33 134.87 C 345.55 131.80 338.25 135.01 331.21 134.61 C 322.19 136.24 312.99 134.75 303.98 136.40 C 268.66 136.53 233.34 136.37 198.02 136.47 C 193.63 136.51 189.34 135.22 184.94 135.49 C 179.53 135.72 174.15 135.35 168.80 134.59 C 163.61 134.81 158.54 133.49 153.38 133.51 Z" />
</g>
<g id="#00001313">
<path fill="#000013" opacity="0.07" d=" M 153.38 133.51 C 158.54 133.49 163.61 134.81 168.80 134.59 C 174.15 135.35 179.53 135.72 184.94 135.49 C 189.34 135.22 193.63 136.51 198.02 136.47 C 233.34 136.37 268.66 136.53 303.98 136.40 C 312.99 134.75 322.19 136.24 331.21 134.61 C 338.25 135.01 345.55 131.80 352.33 134.87 C 358.15 137.86 361.80 144.48 361.55 150.98 C 361.57 173.32 361.54 195.66 361.56 218.00 C 361.89 233.58 359.30 249.44 352.59 263.60 C 349.95 268.87 347.55 274.29 344.13 279.12 C 340.50 284.23 337.62 289.84 333.63 294.70 C 326.30 304.28 318.19 313.22 309.47 321.55 C 299.42 332.16 288.56 341.92 277.46 351.41 C 269.46 358.10 260.11 365.45 249.03 364.50 C 241.63 364.89 235.04 360.77 229.20 356.70 C 220.47 350.21 212.66 342.60 204.46 335.48 C 188.01 318.92 170.34 303.02 158.30 282.77 C 146.21 265.63 138.68 245.06 138.46 223.98 C 138.45 199.31 138.41 174.65 138.48 149.98 C 138.50 141.92 144.90 133.59 153.38 133.51 M 156.37 146.35 C 154.24 146.92 152.08 148.11 151.21 150.25 C 148.98 155.15 148.39 160.64 148.54 165.98 C 148.68 183.32 148.53 200.66 148.59 218.00 C 149.44 227.36 149.97 236.89 153.01 245.86 C 159.00 264.32 171.20 279.85 183.59 294.45 C 188.08 300.23 193.83 304.87 198.32 310.66 C 202.72 316.28 208.89 320.07 213.71 325.28 C 217.91 329.75 222.79 333.49 227.31 337.62 C 233.96 343.13 241.03 349.47 250.06 350.16 C 259.76 349.29 267.14 342.19 274.26 336.25 C 278.51 332.52 282.93 328.97 286.77 324.80 C 291.12 320.11 296.64 316.66 300.75 311.73 C 302.59 309.58 304.33 307.35 306.30 305.31 C 314.00 297.93 320.54 289.46 327.21 281.17 C 337.48 267.60 346.81 252.52 349.47 235.41 C 350.42 227.96 351.67 220.49 351.43 212.96 C 351.34 195.98 351.46 179.00 351.40 162.02 C 350.87 157.22 350.58 151.61 347.02 147.97 C 341.35 144.36 334.29 145.89 327.95 145.59 C 321.91 145.24 315.99 146.63 309.97 146.60 C 269.99 146.59 230.01 146.58 190.03 146.60 C 184.00 146.71 178.07 145.28 172.03 145.59 C 166.82 145.80 161.47 144.93 156.37 146.35 Z" />
</g>
<g id="#0a0a6a6a">
<path fill="#0a0a6a" opacity="0.42" d=" M 240.24 376.97 C 243.56 377.73 246.63 379.45 250.03 379.82 C 253.46 379.43 256.56 377.66 259.93 376.97 L 260.41 378.50 C 257.48 381.03 253.95 383.21 250.01 383.45 C 246.07 383.22 242.55 381.05 239.65 378.52 L 240.24 376.97 Z" />
</g>
<g id="#100f8181">
<path fill="#100f81" opacity="0.51" d=" M 238.23 380.77 C 238.66 380.00 239.16 379.25 239.65 378.52 C 242.55 381.05 246.07 383.22 250.01 383.45 C 253.95 383.21 257.48 381.03 260.41 378.50 C 260.78 379.37 261.37 380.14 261.81 380.99 C 258.09 383.16 254.42 385.96 250.01 386.41 C 245.56 385.97 241.84 383.17 238.23 380.77 Z" />
</g>
<g id="#1b1a9898">
<path fill="#1b1a98" opacity="0.60" d=" M 234.90 379.07 C 236.02 379.59 237.15 380.15 238.23 380.77 C 241.84 383.17 245.56 385.97 250.01 386.41 C 254.42 385.96 258.09 383.16 261.81 380.99 C 262.23 380.74 263.08 380.25 263.50 380.00 C 263.70 380.39 264.11 381.18 264.31 381.57 C 259.35 385.25 253.35 390.25 246.75 388.24 C 242.17 386.26 236.99 383.96 234.90 379.07 Z" />
</g>
<g id="#4a49d7d7">
<path fill="#4a49d7" opacity="0.84" d=" M 264.77 385.05 C 266.30 385.41 267.83 385.78 269.37 386.15 C 264.18 390.68 258.58 395.07 252.01 397.39 C 244.69 398.19 238.89 392.39 233.33 388.47 C 234.64 387.80 235.96 387.14 237.28 386.49 C 240.77 388.70 244.25 391.04 248.18 392.38 C 254.57 393.11 259.64 388.11 264.77 385.05 Z" />
</g>
<g id="#3635a9a9">
<path fill="#3635a9" opacity="0.66" d=" M 317.89 402.97 C 319.74 401.31 321.78 399.87 324.04 398.82 C 323.45 402.37 319.76 404.01 317.42 406.35 C 302.16 418.60 287.50 431.84 270.55 441.77 C 268.76 442.80 266.88 444.12 264.69 443.46 C 266.71 441.87 268.83 440.44 271.01 439.10 C 280.01 433.61 288.23 426.95 296.51 420.46 C 303.72 414.73 311.00 409.08 317.89 402.97 Z" />
</g>
</svg>
